<?xml version="1.0" encoding="UTF-8"?>
<svg id="_레이어_1" data-name="레이어 1" xmlns="http://www.w3.org/2000/svg" viewBox="0 0 80 80">
  <defs>
    <style>
      .cls-1 {
        fill: #798593;
      }

      .cls-2 {
        fill: #fff;
      }

      .cls-3 {
        fill: #54a0ff;
      }

      .cls-4 {
        fill: #c9d6e7;
      }
    </style>
  </defs>
  <path class="cls-3" d="M66.6,32.04c-2.25,0-4.08-1.83-4.08-4.08v-12.19c0-2.25,1.83-4.08,4.08-4.08s4.08,1.83,4.08,4.08v12.19c0,2.25-1.83,4.08-4.08,4.08Z"/>
  <path class="cls-4" d="M62.91,71.71H17.03c-3.99,0-7.22-3.17-7.22-7.08V29.22L40.5,7.48l29.63,21.74v35.41c0,3.91-3.23,7.08-7.22,7.08Z"/>
  <path class="cls-3" d="M75.73,37.76c-.82,0-1.66-.25-2.38-.77l-30.29-21.76c-1.85-1.33-4.33-1.32-6.17,0L6.65,36.95c-1.83,1.31-4.38.9-5.69-.93-1.31-1.83-.9-4.38.93-5.69l30.24-21.72c4.69-3.37,11-3.37,15.69,0l30.29,21.76c1.83,1.31,2.25,3.86.93,5.69-.8,1.11-2.05,1.7-3.32,1.7Z"/>
  <path class="cls-3" d="M52.13,65.59h-24.35v-24.59c0-1.81,1.47-3.28,3.28-3.28h18.41c1.47,0,2.66,1.19,2.66,2.66v25.22Z"/>
  <ellipse class="cls-2" cx="46.5" cy="52.67" rx="2.21" ry="2.16"/>
  <rect class="cls-1" x="5.37" y="65.1" width="69.12" height="8.82" rx="2" ry="2"/>
</svg>