<?xml version="1.0" encoding="UTF-8"?>
<svg id="_레이어_1" data-name="레이어 1" xmlns="http://www.w3.org/2000/svg" viewBox="0 0 80 80">
  <defs>
    <style>
      .cls-1 {
        fill: #798593;
      }

      .cls-2 {
        fill: #fff;
      }

      .cls-3 {
        fill: #292f35;
      }

      .cls-4 {
        fill: #fec959;
      }

      .cls-5 {
        fill: #54a0ff;
      }

      .cls-6 {
        fill: #c9d6e7;
      }
    </style>
  </defs>
  <path class="cls-6" d="M13.85,0h48.6c3.11,0,5.64,2.53,5.64,5.64v64.92H8.21V5.64c0-3.11,2.53-5.64,5.64-5.64Z"/>
  <path class="cls-1" d="M18.9,6.36h39.26c1.8,0,3.26,1.46,3.26,3.26v60.94H14.88V10.38c0-2.22,1.8-4.02,4.02-4.02Z"/>
  <g>
    <path class="cls-4" d="M35.04,70.42h0c-7.38-7.23-7.38-18.94,0-26.17l12.64-12.38c7.38-7.23,19.33-7.23,26.71,0h0c7.38,7.23,7.38,18.94,0,26.17l-12.64,12.38c-7.38,7.23-19.33,7.23-26.71,0Z"/>
    <path class="cls-3" d="M56.91,38.8c.74-.72,1.93-.72,2.67,0s.74,1.89,0,2.62-1.93.72-2.67,0-.74-1.89,0-2.62Z"/>
    <path class="cls-3" d="M64.64,46.38c.74-.72,1.93-.72,2.67,0s.74,1.89,0,2.62-1.93.72-2.67,0-.74-1.89,0-2.62Z"/>
  </g>
  <path class="cls-5" d="M52.55,79.97l-37.68-9.41V9.1c0-1.39,1.34-2.41,2.71-2.06l35.96,8.98c.89.22,1.51,1.01,1.51,1.91v60.13c0,1.29-1.24,2.23-2.51,1.91Z"/>
  <ellipse class="cls-2" cx="47.32" cy="45.52" rx="3.77" ry="3.7"/>
</svg>