<?xml version="1.0" encoding="UTF-8"?>
<svg id="_레이어_1" data-name="레이어 1" xmlns="http://www.w3.org/2000/svg" viewBox="0 0 80 80">
  <defs>
    <style>
      .cls-1 {
        fill: #fbb659;
      }

      .cls-2 {
        fill: #ebeef2;
      }

      .cls-3 {
        fill: #fec959;
      }

      .cls-4 {
        fill: #54a0ff;
      }
    </style>
  </defs>
  <path class="cls-1" d="M10.52,18.12h58.97c3.62,0,6.56,2.94,6.56,6.56v40.53H3.95V24.68c0-3.62,2.94-6.56,6.56-6.56Z"/>
  <path class="cls-2" d="M17.6.06h44.8c3.27,0,5.93,2.66,5.93,5.93v54.44H11.67V5.99C11.67,2.71,14.33.06,17.6.06Z"/>
  <g>
    <polygon class="cls-3" points="76.05 40.35 76.05 70.66 28.15 70.66 76.05 40.35"/>
    <polygon class="cls-3" points="51.85 70.66 3.95 70.66 3.95 40.35 51.85 70.66"/>
  </g>
  <polygon class="cls-1" points="76.05 79.94 3.95 79.94 3.95 66.27 39.88 49.37 76.05 66.27 76.05 79.94"/>
  <g>
    <path class="cls-4" d="M43.88,42.26h-14.09c-4.47,0-8.11-3.56-8.11-7.94v-14.79c0-.84.46-1.62,1.2-2.04l15.77-8.92c.74-.42,1.66-.42,2.4,0l12.17,6.89v-2.29c0-1.3,1.07-2.35,2.4-2.35s2.4,1.05,2.4,2.35v6.37c0,.84-.46,1.62-1.2,2.04-.74.42-1.66.42-2.4,0l-14.57-8.24-13.37,7.56v13.43c0,1.79,1.48,3.24,3.31,3.24h14.09c1.33,0,2.4,1.05,2.4,2.35s-1.07,2.35-2.4,2.35Z"/>
    <path class="cls-4" d="M59.24,42.26c-3.37,0-5.96-.52-7.94-1.34-2.02.84-4.56,1.34-7.7,1.34-1.33,0-2.4-1.05-2.4-2.35s1.07-2.35,2.4-2.35c1.15,0,2.16-.07,3.05-.21-1.6-2.25-1.83-4.67-1.83-5.85,0-4.27,2.71-7.25,6.59-7.25s6.59,2.98,6.59,7.25c0,1.95-.58,4.04-1.94,5.84.96.14,2.02.21,3.18.21,1.33,0,2.4,1.05,2.4,2.35s-1.07,2.35-2.4,2.35ZM51.41,28.95c-1.55,0-1.79,1.6-1.79,2.55,0,1.66.58,2.99,1.73,3.98,1.58-1.34,1.85-3.01,1.85-3.98s-.23-2.55-1.79-2.55Z"/>
    <path class="cls-4" d="M32.08,31.39c-1.33,0-2.4-1.05-2.4-2.35v-3.78c0-1.3,1.07-2.35,2.4-2.35s2.4,1.05,2.4,2.35v3.78c0,1.3-1.07,2.35-2.4,2.35Z"/>
    <path class="cls-4" d="M38.86,31.39c-1.33,0-2.4-1.05-2.4-2.35v-3.78c0-1.3,1.07-2.35,2.4-2.35s2.4,1.05,2.4,2.35v3.78c0,1.3-1.07,2.35-2.4,2.35Z"/>
  </g>
</svg>