<?xml version="1.0" encoding="UTF-8"?>
<svg id="_레이어_1" data-name="레이어 1" xmlns="http://www.w3.org/2000/svg" viewBox="0 0 96 96">
  <defs>
    <style>
      .cls-1 {
        fill: #a4b6cc;
      }

      .cls-2 {
        fill: #fff;
      }

      .cls-3 {
        fill: #ebeef2;
      }

      .cls-4 {
        fill: #c9d6e7;
      }
    </style>
  </defs>
  <path class="cls-3" d="M72.34,79.91H26.47c-3.99,0-7.22-3.17-7.22-7.08v-35.41l30.69-21.74,29.63,21.74v35.41c0,3.91-3.23,7.08-7.22,7.08Z"/>
  <path class="cls-1" d="M87.55,38.57l-7.43-5.34v-10.15c0-2.25-1.83-4.08-4.08-4.08s-4.08,1.83-4.08,4.08v4.29l-14.71-10.56c-4.69-3.37-11-3.37-15.69,0l-30.24,21.72c-1.83,1.31-2.25,3.86-.93,5.69,1.32,1.83,3.86,2.25,5.69.93l30.24-21.72c1.84-1.32,4.33-1.33,6.17,0l30.29,21.76c.72.52,1.55.77,2.38.77,1.27,0,2.52-.59,3.32-1.7,1.31-1.83.9-4.38-.93-5.69Z"/>
  <path class="cls-4" d="M61.56,73.8h-24.35v-24.59c0-1.81,1.47-3.28,3.28-3.28h18.41c1.47,0,2.66,1.19,2.66,2.66v25.22Z"/>
  <ellipse class="cls-2" cx="55.94" cy="60.87" rx="2.21" ry="2.16"/>
  <rect class="cls-1" x="14.81" y="73.31" width="69.12" height="8.82" rx="2" ry="2"/>
</svg>