<?xml version="1.0" encoding="UTF-8"?>
<svg xmlns="http://www.w3.org/2000/svg" viewBox="0 0 96 96">
  <defs>
    <style>
      .cls-1 {
        fill: #d4ffdb;
      }

      .cls-2 {
        fill: #2dbd99;
      }

      .cls-3 {
        fill: #6e5840;
      }

      .cls-4 {
        fill: #0ead84;
      }

      .cls-5 {
        fill: #c9d6e7;
      }
    </style>
  </defs>
  <g id="_원" data-name="원">
    <circle class="cls-5" cx="48" cy="48" r="48"/>
  </g>
  <g id="_레이어_1" data-name="레이어 1">
    <g>
      <g>
        <g>
          <path class="cls-4" d="M10.17,30.82h75.66v36.28c0,3.07-2.49,5.56-5.56,5.56H15.73c-3.07,0-5.56-2.49-5.56-5.56V30.82h0Z"/>
          <path class="cls-2" d="M15.73,23.34h64.55c3.07,0,5.56,2.49,5.56,5.56v36.28H10.17V28.89c0-3.07,2.49-5.56,5.56-5.56Z"/>
        </g>
        <rect class="cls-1" x="42.38" y="19.54" width="11.62" height="56.92" rx="3.5" ry="3.5"/>
      </g>
      <path class="cls-3" d="M64.81,41.52h-3.14c.24-1.74.36-3.38.38-4.7.02-1.22-.96-2.22-2.18-2.24-1.19-.03-2.22.96-2.24,2.18-.02,1.67-.17,3.27-.4,4.75h-6.58c-.23-1.48-.38-3.08-.4-4.75-.02-1.22-1.01-2.24-2.24-2.18,0,0,0,0,0,0s0,0,0,0c-1.22-.03-2.22.96-2.24,2.18-.02,1.67-.17,3.27-.4,4.75h-6.58c-.23-1.48-.38-3.08-.4-4.75-.02-1.21-1-2.18-2.21-2.18h-.03c-1.22.02-2.2,1.02-2.18,2.24.02,1.32.14,2.95.38,4.7h-3.14c-1.22,0-2.21.99-2.21,2.21s.99,2.21,2.21,2.21h4c1.2,4.65,3.37,8.85,6.87,8.85,2.74,0,4.66-2.56,5.94-5.9,1.28,3.34,3.2,5.9,5.94,5.9,3.51,0,5.67-4.2,6.87-8.85h4c1.22,0,2.21-.99,2.21-2.21s-.99-2.21-2.21-2.21ZM42.06,50.34c-.64-.37-1.54-2-2.28-4.4h4.57c-.75,2.4-1.64,4.03-2.28,4.4ZM53.94,50.34c-.64-.37-1.54-2-2.28-4.4h4.57c-.75,2.4-1.64,4.03-2.28,4.4Z"/>
    </g>
  </g>
</svg>