<?xml version="1.0" encoding="UTF-8"?>
<svg xmlns="http://www.w3.org/2000/svg" viewBox="0 0 96 96">
  <defs>
    <style>
      .cls-1 {
        fill: #a4b6cc;
      }

      .cls-2 {
        fill: #ebeef2;
      }

      .cls-3 {
        fill: #fec959;
      }

      .cls-4 {
        fill: #54a0ff;
      }
    </style>
  </defs>
  <g id="_원" data-name="원">
    <circle class="cls-3" cx="48" cy="48" r="48"/>
  </g>
  <g id="_레이어_1" data-name="레이어 1">
    <path class="cls-4" d="M71.73,35.72c-2.02,0-3.66-1.64-3.66-3.66v-11.1c0-2.02,1.64-3.66,3.66-3.66s3.66,1.64,3.66,3.66v11.1c0,2.02-1.64,3.66-3.66,3.66Z"/>
    <path class="cls-2" d="M68.81,71.89H27.89c-3.56,0-6.44-2.88-6.44-6.44v-32.24l27.37-19.79,26.43,19.79v32.24c0,3.56-2.88,6.44-6.44,6.44Z"/>
    <rect class="cls-1" x="15.89" y="65.87" width="64.83" height="9.28" rx="1.8" ry="1.8"/>
    <path class="cls-4" d="M79.87,40.93c-.75,0-1.51-.23-2.16-.71l-27.02-19.81c-1.62-1.19-3.8-1.19-5.42,0l-26.97,19.77c-1.63,1.2-3.92.84-5.12-.79s-.84-3.92.79-5.12l26.97-19.77c4.21-3.09,9.87-3.09,14.08,0l27.02,19.81c1.63,1.2,1.98,3.49.79,5.12-.72.98-1.83,1.5-2.96,1.5Z"/>
    <rect class="cls-4" x="27.41" y="42.5" width="6.73" height="10.22" rx="2.64" ry="2.64"/>
    <rect class="cls-4" x="39.62" y="42.5" width="6.73" height="10.22" rx="2.64" ry="2.64"/>
  </g>
</svg>