<?xml version="1.0" encoding="UTF-8"?>
<svg xmlns="http://www.w3.org/2000/svg" viewBox="0 0 96 96">
  <defs>
    <style>
      .cls-1 {
        fill: #2dbd99;
      }

      .cls-2 {
        fill: #fbb659;
      }

      .cls-3 {
        fill: #6e5840;
      }

      .cls-4 {
        fill: #ffd066;
      }
    </style>
  </defs>
  <g id="_원" data-name="원">
    <circle class="cls-1" cx="48" cy="48" r="48"/>
  </g>
  <g id="_레이어_1" data-name="레이어 1">
    <g>
      <circle class="cls-4" cx="48" cy="48" r="35.6"/>
      <circle class="cls-2" cx="48" cy="48" r="27.5"/>
      <path class="cls-3" d="M65,44.8h-3.17c.24-1.76.37-3.41.38-4.75.02-1.23-.97-2.25-2.21-2.26-1.2-.03-2.25.97-2.26,2.21-.02,1.69-.17,3.31-.41,4.81h-6.66c-.23-1.5-.39-3.12-.41-4.81-.02-1.23-1.02-2.26-2.26-2.21,0,0,0,0,0,0s0,0,0,0c-1.23-.03-2.25.97-2.26,2.21-.02,1.69-.17,3.31-.41,4.81h-6.66c-.23-1.5-.39-3.12-.41-4.81-.02-1.22-1.01-2.21-2.23-2.21h-.03c-1.23.02-2.22,1.03-2.21,2.26.02,1.33.14,2.99.38,4.75h-3.17c-1.23,0-2.23,1-2.23,2.23s1,2.23,2.23,2.23h4.04c1.22,4.7,3.4,8.95,6.95,8.95,2.77,0,4.71-2.59,6-5.96,1.3,3.37,3.24,5.96,6,5.96,3.54,0,5.73-4.25,6.95-8.95h4.04c1.23,0,2.23-1,2.23-2.23s-1-2.23-2.23-2.23ZM42,53.71c-.65-.37-1.55-2.02-2.31-4.44h4.62c-.76,2.43-1.66,4.07-2.31,4.44ZM54,53.71c-.65-.37-1.55-2.02-2.31-4.44h4.62c-.76,2.43-1.66,4.07-2.31,4.44Z"/>
    </g>
  </g>
</svg>