<svg width="40" height="40" viewBox="0 0 40 40" fill="none" xmlns="http://www.w3.org/2000/svg">
<path d="M6.66602 35V19.375L3.66602 21.6667L1.66602 19L19.9993 5L38.3327 19L36.3327 21.625L33.3327 19.375V35H6.66602ZM9.99935 31.6667H29.9993V16.8333L19.9993 9.20833L9.99935 16.8333V31.6667ZM13.3327 25C12.8605 25 12.4649 24.84 12.146 24.52C11.8271 24.2 11.6671 23.8044 11.666 23.3333C11.6649 22.8622 11.8249 22.4667 12.146 22.1467C12.4671 21.8267 12.8627 21.6667 13.3327 21.6667C13.8027 21.6667 14.1988 21.8267 14.521 22.1467C14.8432 22.4667 15.0027 22.8622 14.9993 23.3333C14.996 23.8044 14.836 24.2006 14.5193 24.5217C14.2027 24.8428 13.8071 25.0022 13.3327 25ZM19.9993 25C19.5271 25 19.1316 24.84 18.8127 24.52C18.4938 24.2 18.3338 23.8044 18.3327 23.3333C18.3316 22.8622 18.4916 22.4667 18.8127 22.1467C19.1338 21.8267 19.5294 21.6667 19.9993 21.6667C20.4694 21.6667 20.8655 21.8267 21.1877 22.1467C21.5099 22.4667 21.6693 22.8622 21.666 23.3333C21.6627 23.8044 21.5027 24.2006 21.186 24.5217C20.8694 24.8428 20.4738 25.0022 19.9993 25ZM26.666 25C26.1938 25 25.7982 24.84 25.4794 24.52C25.1605 24.2 25.0005 23.8044 24.9993 23.3333C24.9982 22.8622 25.1582 22.4667 25.4794 22.1467C25.8005 21.8267 26.196 21.6667 26.666 21.6667C27.136 21.6667 27.5321 21.8267 27.8543 22.1467C28.1766 22.4667 28.336 22.8622 28.3327 23.3333C28.3293 23.8044 28.1693 24.2006 27.8527 24.5217C27.536 24.8428 27.1405 25.0022 26.666 25Z" fill="black"/>
</svg>
