<?xml version="1.0" encoding="UTF-8"?>
<svg xmlns="http://www.w3.org/2000/svg" viewBox="0 0 96 96">
  <defs>
    <style>
      .cls-1 {
        fill: #6fadff;
      }

      .cls-2 {
        fill: #798593;
      }

      .cls-3 {
        fill: #a4b6cc;
      }

      .cls-4 {
        fill: #fff;
      }

      .cls-5 {
        fill: #ebeef2;
      }

      .cls-6 {
        fill: #fec959;
      }

      .cls-7 {
        fill: #c9d6e7;
      }
    </style>
  </defs>
  <g id="_원" data-name="원">
    <circle class="cls-4" cx="48" cy="48" r="48"/>
    <circle class="cls-1" cx="48" cy="48" r="48"/>
  </g>
  <g id="_레이어_1" data-name="레이어 1">
    <path class="cls-5" d="M62.97,76.37H27.46V19.4c0-1.45,1.18-2.63,2.63-2.63h42.42c1.45,0,2.63,1.18,2.63,2.63v44.8c0,6.72-5.45,12.17-12.17,12.17Z"/>
    <path class="cls-7" d="M55.47,67.1v-1.15c0-1.66-1.35-3-3-3H15.04c-1.66,0-3,1.35-3,3v1.15c0,4.72,4.27,9.27,11.62,9.27h41.02c-3.7,0-9.2-4.95-9.2-9.27Z"/>
    <g>
      <rect class="cls-3" x="32.27" y="22.71" width="38.04" height="4.17" rx="1.83" ry="1.83"/>
      <rect class="cls-3" x="32.27" y="33.01" width="38.04" height="4.17" rx="1.83" ry="1.83"/>
      <rect class="cls-3" x="32.27" y="43.31" width="38.04" height="4.17" rx="1.83" ry="1.83"/>
      <rect class="cls-3" x="32.27" y="53.61" width="38.04" height="4.17" rx="1.83" ry="1.83"/>
    </g>
    <path class="cls-6" d="M82.42,34.47l4.76,4.76c1.12,1.12,1.12,2.94,0,4.06l-25.79,25.79-8.82-8.82,25.79-25.79c1.12-1.12,2.94-1.12,4.06,0Z"/>
    <path class="cls-2" d="M51,71.84l10.42-2.79-8.86-8.86-2.79,10.42c-.2.74.48,1.43,1.23,1.23Z"/>
  </g>
</svg>