<?xml version="1.0" encoding="UTF-8"?>
<svg id="_레이어_1" data-name="레이어 1" xmlns="http://www.w3.org/2000/svg" viewBox="0 0 96 96">
  <defs>
    <style>
      .cls-1 {
        fill: #a4b6cc;
      }

      .cls-2 {
        fill: #96795b;
      }

      .cls-3 {
        fill: #fec959;
      }

      .cls-4 {
        fill: #c9d6e7;
      }
    </style>
  </defs>
  <path class="cls-2" d="M56.89,26.32h12.13v65.99c0,1.67-1.36,3.03-3.03,3.03h-6.06c-1.67,0-3.03-1.36-3.03-3.03V26.32h0Z" transform="translate(-24.58 62.33) rotate(-45)"/>
  <path class="cls-1" d="M41.11,9.97h0c-1.62.44-3.11,1.3-4.3,2.5l-19.17,19.17c-.79.79-.79,2.06,0,2.85h0c.28.28.17.75-.21.87l-4.05,1.35c-.81.27-1.54.72-2.14,1.32l-3.83,3.83c-.59.59-.59,1.55,0,2.14l12.9,12.9c.59.59,1.55.59,2.14,0l3.83-3.83c.6-.6,1.05-1.33,1.32-2.14l1.35-4.05c.12-.37.59-.48.87-.21h0c.79.79,2.06.79,2.85,0l15.07-15.07c1.31-1.31,1.64-3.3.83-4.96l-1.92-3.94c-.31-.64-.02-1.41.63-1.69l10.05-3.09c.81-.35.77-1.27.29-2.01-.68-1.04-1.1-1.91-4.58-4.05s-7.88-2.99-11.95-1.88Z"/>
  <path class="cls-4" d="M41.23,10.1h0c-1.62.44-3.11,1.3-4.3,2.5l-19.17,19.17c-.79.79-.79,2.06,0,2.85h0c.28.28,11.9,11.9,12.18,12.18h0c.79.79,2.06.79,2.85,0l15.07-15.07c1.31-1.31,1.64-3.3.83-4.96l-1.92-3.94c-.31-.64-.02-1.41.63-1.69l10.05-3.09c.81-.35.77-1.27.29-2.01-.68-1.04-1.1-1.91-4.58-4.05s-7.88-2.99-11.95-1.88Z"/>
  <g>
    <rect class="cls-4" x="10.93" y="49.17" width="72.48" height="9.21" transform="translate(-24.21 49.11) rotate(-45)"/>
    <path class="cls-3" d="M18.63,88.61l-6.28-6.28c-1.21-1.21-1.01-3.37.45-4.82l29.06-29.06c1.45-1.45,3.61-1.65,4.82-.45l6.28,6.28c1.21,1.21,1.01,3.37-.45,4.82l-29.06,29.06c-1.45,1.45-3.61,1.65-4.82.45Z"/>
    <path class="cls-1" d="M75.05,36.57l-3.03-.27-6.93-6.93-.56-3.34c-.18-1.09.28-2.21,1.19-2.9l11.15-8.38c.72-.54,1.71-.49,2.31.11l6.91,6.91c.61.61.66,1.59.11,2.31l-8.48,11.27c-.64.85-1.66,1.31-2.68,1.22Z"/>
  </g>
</svg>