<?xml version="1.0" encoding="UTF-8"?>
<svg xmlns="http://www.w3.org/2000/svg" viewBox="0 0 96 96">
  <defs>
    <style>
      .cls-1 {
        fill: #fff;
      }

      .cls-2 {
        fill: #54a0ff;
      }
    </style>
  </defs>
  <g id="_원" data-name="원">
    <circle class="cls-1" cx="48" cy="48" r="48"/>
  </g>
  <g id="_레이어_1" data-name="레이어 1">
    <g>
      <path class="cls-2" d="M82.74,58.25c-2.47,0-4.71-.15-6.75-.46,2.87-3.91,4.11-8.41,4.11-12.63,0-9.23-5.74-15.68-13.95-15.68s-13.95,6.45-13.95,15.68c0,2.55.48,7.78,3.87,12.64-1.89.29-4.03.45-6.45.45h-24.26c-3.86,0-7.01-3.14-7.01-7.01h-10.17c0,9.47,7.71,17.18,17.18,17.18h24.85c.05,0,.1-.01.15-.02,6.3-.08,11.44-1.15,15.56-2.89,4.2,1.78,9.69,2.91,16.82,2.91,2.81,0,5.08-2.28,5.08-5.08s-2.28-5.08-5.08-5.08ZM66.02,53.77c-2.42-2.14-3.66-5.02-3.66-8.61,0-2.06.49-5.51,3.79-5.51s3.78,3.45,3.78,5.51-.57,5.71-3.91,8.61Z"/>
      <path class="cls-2" d="M28.2,45.93c2.81,0,5.08-2.28,5.08-5.08v-8.18c0-2.81-2.28-5.08-5.08-5.08s-5.08,2.28-5.08,5.08v8.18c0,2.81,2.28,5.08,5.08,5.08Z"/>
      <path class="cls-2" d="M42.56,45.93c2.81,0,5.08-2.28,5.08-5.08v-8.18c0-2.81-2.28-5.08-5.08-5.08s-5.08,2.28-5.08,5.08v8.18c0,2.81,2.28,5.08,5.08,5.08Z"/>
      <path class="cls-2" d="M8.18,52.2v-4.96c0-2.81,2.28-5.08,5.08-5.08s5.08,2.28,5.08,5.08v13.77"/>
    </g>
  </g>
</svg>