<?xml version="1.0" encoding="UTF-8"?>
<svg id="_레이어_1" data-name="레이어 1" xmlns="http://www.w3.org/2000/svg" viewBox="0 0 96 96">
  <defs>
    <style>
      .cls-1 {
        fill: #798593;
      }

      .cls-2 {
        fill: #a4b6cc;
      }

      .cls-3 {
        fill: #c9d6e7;
      }
    </style>
  </defs>
  <g>
    <path class="cls-2" d="M58.61,8.12h-21.23c-3.72,0-6.74,3.02-6.74,6.74v2.55c0,2.29,1.85,4.14,4.14,4.14h2.64c-.09-.29-.15-.6-.15-.92v-4.54c0-1.82,1.48-3.3,3.3-3.3h14.84c1.82,0,3.3,1.48,3.3,3.3v4.54c0,.32-.06.63-.15.92h2.64c2.29,0,4.14-1.85,4.14-4.14v-2.55c0-3.72-3.02-6.74-6.74-6.74Z"/>
    <path class="cls-2" d="M40.58,23.91h14.84c1.5,0,2.75-1.01,3.15-2.37h-21.14c.4,1.37,1.65,2.37,3.15,2.37Z"/>
  </g>
  <path class="cls-3" d="M72.97,89.65H23.03c-2.09,0-3.85-1.75-4.11-5.36l-3.52-57.01h65.2l-3.52,57.01c-.26,3.61-2.02,5.36-4.11,5.36Z"/>
  <polygon class="cls-2" points="15.4 27.29 16.05 35.64 79.89 35.64 80.6 27.29 15.4 27.29"/>
  <rect class="cls-1" x="9.44" y="18.29" width="77.12" height="12.11" rx="4.65" ry="4.65"/>
  <g>
    <rect class="cls-2" x="45.05" y="40.67" width="5.89" height="37.81" rx="2.95" ry="2.95"/>
    <rect class="cls-2" x="61.38" y="40.73" width="5.89" height="37.81" rx="2.95" ry="2.95" transform="translate(5.44 -5.38) rotate(5)"/>
    <rect class="cls-2" x="28.73" y="40.73" width="5.89" height="37.81" rx="2.95" ry="2.95" transform="translate(68.42 116.28) rotate(175)"/>
  </g>
</svg>