<?xml version="1.0" encoding="UTF-8"?>
<svg xmlns="http://www.w3.org/2000/svg" viewBox="0 0 96 96">
  <defs>
    <style>
      .cls-1 {
        fill: #798593;
      }

      .cls-2 {
        fill: #fff;
      }

      .cls-3 {
        fill: #292f35;
      }

      .cls-4 {
        fill: #ebeef2;
      }

      .cls-5 {
        fill: #54a0ff;
      }

      .cls-6 {
        fill: #c9d6e7;
      }
    </style>
  </defs>
  <g id="_원" data-name="원">
    <circle class="cls-2" cx="48" cy="48" r="48"/>
  </g>
  <g id="_레이어_1" data-name="레이어 1">
    <g>
      <path class="cls-6" d="M27.17,13.42h41.35c3.11,0,5.64,2.53,5.64,5.64v57.65H21.54V19.06c0-3.11,2.53-5.64,5.64-5.64Z"/>
      <path class="cls-1" d="M31.42,19.12h33.62c1.8,0,3.26,1.46,3.26,3.26v54.33H27.4V23.15c0-2.22,1.8-4.02,4.02-4.02Z"/>
      <rect class="cls-3" x="45.54" y="34.98" width="33.2" height="48.91" rx="16.6" ry="16.6" transform="translate(60.22 -26.53) rotate(45)"/>
      <g>
        <circle class="cls-4" cx="68.36" cy="52.26" r="1.66"/>
        <circle class="cls-4" cx="75.16" cy="59.05" r="1.66"/>
      </g>
      <path class="cls-5" d="M60.51,85.15l-33.11-8.44V21.58c0-1.25,1.17-2.16,2.38-1.85l31.6,8.06c.78.2,1.33.9,1.33,1.71v53.93c0,1.15-1.09,2-2.2,1.71Z"/>
      <circle class="cls-2" cx="55.91" cy="54.25" r="3.32"/>
    </g>
  </g>
</svg>