<?xml version="1.0" encoding="UTF-8"?>
<svg xmlns="http://www.w3.org/2000/svg" viewBox="0 0 96 96">
  <defs>
    <style>
      .cls-1 {
        fill: #a4b6cc;
      }

      .cls-2 {
        fill: #fff;
      }

      .cls-3 {
        fill: #96795b;
      }

      .cls-4 {
        fill: #ebeef2;
      }

      .cls-5 {
        fill: #c9d6e7;
      }
    </style>
  </defs>
  <g id="_원" data-name="원">
    <circle class="cls-2" cx="48" cy="48" r="48"/>
  </g>
  <g id="_레이어_1" data-name="레이어 1">
    <g>
      <g>
        <g>
          <path class="cls-5" d="M48.13,43.98c-.34,4.5-7.9,8.1-17.19,8.1-2.31,0-4.51-.22-6.53-.63v1.4c0,.86-.7,1.56-1.56,1.56s-1.56-.7-1.56-1.56v-2.22c-4.3-1.43-7.21-3.78-7.52-6.47v23.53c-.02.16-.03.33-.03.49,0,2.9,3,5.45,7.55,6.96v-1.79c0-.86.7-1.56,1.56-1.56s1.56.7,1.56,1.56v2.61c2.01.4,4.22.63,6.53.63,9.28,0,16.84-3.59,17.19-8.09h.02v-24.52h-.02ZM21.29,57.87c0-.86.7-1.56,1.56-1.56s1.56.7,1.56,1.56v2.73c0,.86-.7,1.56-1.56,1.56-.66,0-1.22-.41-1.45-.99-.07-.18-.11-.37-.11-.58v-2.73ZM22.85,69.73c-.75,0-1.38-.53-1.53-1.24-.02-.11-.04-.21-.04-.33v-2.73c0-.86.7-1.56,1.56-1.56s1.56.7,1.56,1.56v2.73c0,.11-.01.22-.04.33-.15.71-.78,1.24-1.53,1.24Z"/>
          <path class="cls-4" d="M30.94,35.26c-9.5,0-17.21,3.77-17.21,8.41,0,.16.01.33.03.49.32,2.69,3.22,5.05,7.52,6.47v-.51c0-.86.7-1.56,1.56-1.56s1.56.7,1.56,1.56v1.33c2.01.4,4.22.63,6.53.63,9.29,0,16.85-3.6,17.19-8.1,0-.1.02-.21.02-.31,0-4.64-7.7-8.41-17.21-8.41Z"/>
          <path class="cls-4" d="M22.85,48.56c-.86,0-1.56.7-1.56,1.56v.51c.97.32,2.02.6,3.13.82v-1.33c0-.86-.7-1.56-1.56-1.56Z"/>
          <g>
            <path class="cls-1" d="M22.85,63.87c-.86,0-1.56.7-1.56,1.56v2.73c0,.11.01.22.04.33.15.71.78,1.24,1.53,1.24s1.38-.53,1.53-1.24c.02-.11.04-.21.04-.33v-2.73c0-.86-.7-1.56-1.56-1.56Z"/>
            <path class="cls-1" d="M22.85,56.3c-.86,0-1.56.7-1.56,1.56v2.73c0,.2.04.4.11.58.23.58.79.99,1.45.99.86,0,1.56-.7,1.56-1.56v-2.73c0-.86-.7-1.56-1.56-1.56Z"/>
            <path class="cls-1" d="M21.29,50.63v2.22c0,.86.7,1.56,1.56,1.56s1.56-.7,1.56-1.56v-1.4c-1.1-.22-2.15-.5-3.13-.82Z"/>
            <path class="cls-1" d="M22.85,71.78c-.86,0-1.56.7-1.56,1.56v1.79c.97.32,2.02.6,3.13.82v-2.61c0-.86-.7-1.56-1.56-1.56Z"/>
          </g>
          <ellipse class="cls-3" cx="30.94" cy="43.67" rx="8.89" ry="3.62"/>
        </g>
        <g>
          <path class="cls-5" d="M82.25,43.98c-.34,4.5-7.9,8.1-17.19,8.1-2.31,0-4.51-.22-6.53-.63v1.4c0,.86-.7,1.56-1.56,1.56s-1.56-.7-1.56-1.56v-2.22c-4.3-1.43-7.21-3.78-7.52-6.47v23.53c-.02.16-.03.33-.03.49,0,2.9,3,5.45,7.55,6.96v-1.79c0-.86.7-1.56,1.56-1.56s1.56.7,1.56,1.56v2.61c2.01.4,4.22.63,6.53.63,9.28,0,16.84-3.59,17.19-8.09h.02v-24.52h-.02ZM55.41,57.87c0-.86.7-1.56,1.56-1.56s1.56.7,1.56,1.56v2.73c0,.86-.7,1.56-1.56,1.56-.66,0-1.22-.41-1.45-.99-.07-.18-.11-.37-.11-.58v-2.73ZM56.97,69.73c-.75,0-1.38-.53-1.53-1.24-.02-.11-.04-.21-.04-.33v-2.73c0-.86.7-1.56,1.56-1.56s1.56.7,1.56,1.56v2.73c0,.11-.01.22-.04.33-.15.71-.78,1.24-1.53,1.24Z"/>
          <path class="cls-4" d="M65.06,35.26c-9.5,0-17.21,3.77-17.21,8.41,0,.16.01.33.03.49.32,2.69,3.22,5.05,7.52,6.47v-.51c0-.86.7-1.56,1.56-1.56s1.56.7,1.56,1.56v1.33c2.01.4,4.22.63,6.53.63,9.29,0,16.85-3.6,17.19-8.1,0-.1.02-.21.02-.31,0-4.64-7.7-8.41-17.21-8.41Z"/>
          <path class="cls-4" d="M56.97,48.56c-.86,0-1.56.7-1.56,1.56v.51c.97.32,2.02.6,3.13.82v-1.33c0-.86-.7-1.56-1.56-1.56Z"/>
          <g>
            <path class="cls-1" d="M56.97,63.87c-.86,0-1.56.7-1.56,1.56v2.73c0,.11.01.22.04.33.15.71.78,1.24,1.53,1.24s1.38-.53,1.53-1.24c.02-.11.04-.21.04-.33v-2.73c0-.86-.7-1.56-1.56-1.56Z"/>
            <path class="cls-1" d="M56.97,56.3c-.86,0-1.56.7-1.56,1.56v2.73c0,.2.04.4.11.58.23.58.79.99,1.45.99.86,0,1.56-.7,1.56-1.56v-2.73c0-.86-.7-1.56-1.56-1.56Z"/>
            <path class="cls-1" d="M55.41,50.63v2.22c0,.86.7,1.56,1.56,1.56s1.56-.7,1.56-1.56v-1.4c-1.1-.22-2.15-.5-3.13-.82Z"/>
            <path class="cls-1" d="M56.97,71.78c-.86,0-1.56.7-1.56,1.56v1.79c.97.32,2.02.6,3.13.82v-2.61c0-.86-.7-1.56-1.56-1.56Z"/>
          </g>
          <ellipse class="cls-3" cx="65.06" cy="43.67" rx="8.89" ry="3.62"/>
        </g>
      </g>
      <g>
        <path class="cls-5" d="M65.19,19.63c-.34,4.5-7.9,8.1-17.19,8.1-2.31,0-4.51-.22-6.53-.63v1.4c0,.86-.7,1.56-1.56,1.56s-1.56-.7-1.56-1.56v-2.22c-4.3-1.43-7.21-3.78-7.52-6.47v23.53c-.02.16-.03.33-.03.49,0,2.9,3,5.45,7.55,6.96v-1.79c0-.86.7-1.56,1.56-1.56s1.56.7,1.56,1.56v2.61c2.01.4,4.22.63,6.53.63,9.28,0,16.84-3.59,17.19-8.09h.02v-24.52h-.02ZM38.35,33.51c0-.86.7-1.56,1.56-1.56s1.56.7,1.56,1.56v2.73c0,.86-.7,1.56-1.56,1.56-.66,0-1.22-.41-1.45-.99-.07-.18-.11-.37-.11-.58v-2.73ZM39.91,45.38c-.75,0-1.38-.53-1.53-1.24-.02-.11-.04-.21-.04-.33v-2.73c0-.86.7-1.56,1.56-1.56s1.56.7,1.56,1.56v2.73c0,.11-.01.22-.04.33-.15.71-.78,1.24-1.53,1.24Z"/>
        <path class="cls-4" d="M48,10.9c-9.5,0-17.21,3.77-17.21,8.41,0,.16.01.33.03.49.32,2.69,3.22,5.05,7.52,6.47v-.51c0-.86.7-1.56,1.56-1.56s1.56.7,1.56,1.56v1.33c2.01.4,4.22.63,6.53.63,9.29,0,16.85-3.6,17.19-8.1,0-.1.02-.21.02-.31,0-4.64-7.7-8.41-17.21-8.41Z"/>
        <path class="cls-4" d="M39.91,24.2c-.86,0-1.56.7-1.56,1.56v.51c.97.32,2.02.6,3.13.82v-1.33c0-.86-.7-1.56-1.56-1.56Z"/>
        <g>
          <path class="cls-1" d="M39.91,39.52c-.86,0-1.56.7-1.56,1.56v2.73c0,.11.01.22.04.33.15.71.78,1.24,1.53,1.24s1.38-.53,1.53-1.24c.02-.11.04-.21.04-.33v-2.73c0-.86-.7-1.56-1.56-1.56Z"/>
          <path class="cls-1" d="M39.91,31.95c-.86,0-1.56.7-1.56,1.56v2.73c0,.2.04.4.11.58.23.58.79.99,1.45.99.86,0,1.56-.7,1.56-1.56v-2.73c0-.86-.7-1.56-1.56-1.56Z"/>
          <path class="cls-1" d="M38.35,26.28v2.22c0,.86.7,1.56,1.56,1.56s1.56-.7,1.56-1.56v-1.4c-1.1-.22-2.15-.5-3.13-.82Z"/>
          <path class="cls-1" d="M39.91,47.43c-.86,0-1.56.7-1.56,1.56v1.79c.97.32,2.02.6,3.13.82v-2.61c0-.86-.7-1.56-1.56-1.56Z"/>
        </g>
        <ellipse class="cls-3" cx="48" cy="19.31" rx="8.89" ry="3.62"/>
      </g>
    </g>
  </g>
</svg>