<?xml version="1.0" encoding="UTF-8"?>
<svg xmlns="http://www.w3.org/2000/svg" viewBox="0 0 96 96">
  <defs>
    <style>
      .cls-1 {
        fill: #798593;
      }

      .cls-2 {
        fill: #a4b6cc;
      }

      .cls-3 {
        fill: #f96e69;
      }

      .cls-4 {
        fill: #ff8c8f;
      }

      .cls-5 {
        fill: #ebeef2;
      }

      .cls-6 {
        fill: #fffbe8;
      }

      .cls-7 {
        fill: #c9d6e7;
      }
    </style>
  </defs>
  <g id="_원" data-name="원">
    <circle class="cls-6" cx="48" cy="48" r="48"/>
  </g>
  <g id="_레이어_1" data-name="레이어 1">
    <g>
      <g>
        <rect class="cls-7" x="22.81" y="16.09" width="5.44" height="26.85" rx="2.72" ry="2.72" transform="translate(-13.39 26.7) rotate(-45)"/>
        <rect class="cls-7" x="56.59" y="26.8" width="26.85" height="5.44" rx="2.72" ry="2.72" transform="translate(-.37 58.15) rotate(-45)"/>
      </g>
      <g>
        <rect class="cls-2" x="57.01" y="46.57" width="7.54" height="37.2" rx="3.77" ry="3.77" transform="translate(-28.28 62.06) rotate(-45)"/>
        <rect class="cls-2" x="16.17" y="61.4" width="37.2" height="7.54" rx="3.77" ry="3.77" transform="translate(-35.9 43.67) rotate(-45)"/>
      </g>
      <circle class="cls-4" cx="47.77" cy="50.09" r="29.33"/>
      <circle class="cls-5" cx="47.77" cy="49.7" r="22.05"/>
      <g>
        <path class="cls-3" d="M68.06,20.77h10.07c5.13,0,9.29,4.16,9.29,9.29v.49c0,1.2-.97,2.18-2.18,2.18h-24.3c-1.2,0-2.18-.97-2.18-2.18v-.49c0-5.13,4.16-9.29,9.29-9.29Z" transform="translate(40.32 -43.85) rotate(45)"/>
        <path class="cls-3" d="M17.42,20.77h10.07c5.13,0,9.29,4.16,9.29,9.29v.49c0,1.2-.97,2.18-2.18,2.18H10.31c-1.2,0-2.18-.97-2.18-2.18v-.49c0-5.13,4.16-9.29,9.29-9.29Z" transform="translate(-12.34 23.71) rotate(-45)"/>
      </g>
      <rect class="cls-1" x="46.25" y="35.64" width="3.04" height="14.99" rx="1.52" ry="1.52"/>
      <rect class="cls-1" x="50.67" y="46.95" width="3.04" height="14.99" rx="1.52" ry="1.52" transform="translate(-23.21 52.85) rotate(-45)"/>
      <circle class="cls-3" cx="47.77" cy="49.7" r="3.26"/>
    </g>
  </g>
</svg>