<?xml version="1.0" encoding="UTF-8"?>
<svg xmlns="http://www.w3.org/2000/svg" viewBox="0 0 96 96">
  <defs>
    <style>
      .cls-1 {
        fill: #d4e9ff;
      }

      .cls-2 {
        fill: #fff;
      }

      .cls-3 {
        fill: #96795b;
      }

      .cls-4 {
        fill: #ebeef2;
      }

      .cls-5 {
        fill: #fec959;
      }

      .cls-6 {
        fill: #3689d9;
      }

      .cls-7 {
        fill: #54a0ff;
      }

      .cls-8 {
        fill: #c9d6e7;
      }
    </style>
  </defs>
  <g id="_원" data-name="원">
    <circle class="cls-1" cx="48" cy="48" r="48"/>
  </g>
  <g id="_레이어_1" data-name="레이어 1">
    <g>
      <circle class="cls-2" cx="31.38" cy="39.76" r="12.05"/>
      <circle class="cls-2" cx="32.69" cy="16.24" r="4.35"/>
      <circle class="cls-2" cx="53.05" cy="36.22" r="17.66"/>
      <rect class="cls-7" x="12.54" y="37.63" width="66.07" height="7.85" rx="1.67" ry="1.67"/>
      <path class="cls-7" d="M66.4,76.48H24.74c-1.81,0-3.34-1.35-3.57-3.14l-3.89-27.88h56.58l-3.89,27.88c-.23,1.8-1.76,3.14-3.57,3.14Z"/>
      <polygon class="cls-6" points="17.34 45.46 17.9 49.94 73.29 49.94 73.91 45.46 17.34 45.46"/>
      <rect class="cls-5" x="7.69" y="43.86" width="38.72" height="7.85" rx="3.92" ry="3.92" transform="translate(-25.86 33.13) rotate(-45)"/>
      <g>
        <path class="cls-3" d="M63.76,10.25h.1c1.62,0,2.94,1.32,2.94,2.94v46.95h-5.98V13.18c0-1.62,1.32-2.94,2.94-2.94Z"/>
        <path class="cls-8" d="M54.69,53.29h18.45c.9,0,1.64.73,1.64,1.64v4.14h-21.73v-4.14c0-.9.73-1.64,1.64-1.64Z"/>
        <path class="cls-4" d="M78.19,74.56l-3.42-15.55h-21.73l-3.42,15.55c-.27.98.61,1.93,1.8,1.93h2.96s-.01-.07,0-.1l1.84-8.89c.13-.62.82-1.03,1.55-.92s1.21.7,1.08,1.32l-1.78,8.6h5.49v-8.87c0-.63.6-1.14,1.34-1.14s1.34.51,1.34,1.14v8.87h5.49l-1.78-8.6c-.13-.62.36-1.21,1.09-1.32.73-.11,1.42.3,1.55.92l1.84,8.89s0,.07,0,.1h2.96c1.19,0,2.07-.94,1.8-1.93Z"/>
        <path class="cls-8" d="M63.91,66.48c-.74,0-1.34.51-1.34,1.14v8.87h2.67v-8.87c0-.63-.6-1.14-1.34-1.14Z"/>
        <path class="cls-8" d="M71.59,67.49c-.13-.62-.82-1.03-1.55-.92-.73.11-1.21.7-1.09,1.32l1.78,8.6h2.69s.01-.07,0-.1l-1.84-8.89Z"/>
        <path class="cls-8" d="M57.78,66.57c-.73-.11-1.42.3-1.55.92l-1.84,8.89s0,.07,0,.1h2.69l1.78-8.6c.13-.62-.36-1.21-1.08-1.32Z"/>
      </g>
    </g>
  </g>
</svg>