<?xml version="1.0" encoding="UTF-8"?>
<svg xmlns="http://www.w3.org/2000/svg" viewBox="0 0 96 96">
  <defs>
    <style>
      .cls-1 {
        fill: #fbb659;
      }

      .cls-2 {
        fill: #fec959;
      }

      .cls-3 {
        fill: #3689d9;
      }

      .cls-4 {
        fill: #6e5840;
      }

      .cls-5 {
        fill: #fffbe8;
      }
    </style>
  </defs>
  <g id="_원" data-name="원">
    <circle class="cls-5" cx="48" cy="48" r="48"/>
  </g>
  <g id="_레이어_1" data-name="레이어 1">
    <g>
      <path class="cls-2" d="M79.08,47.63c0,17.16-13.91,27.29-31.08,27.29s-31.08-10.13-31.08-27.29,13.91-28.24,31.08-28.24,31.08,11.08,31.08,28.24Z"/>
      <path class="cls-4" d="M43.98,49.71c0-1.23,1-1.68,2.23-1.68h3.58c1.23,0,2.23.46,2.23,1.68s-2.88,2.77-4.11,2.77h-.02c-1.23,0-3.9-1.54-3.9-2.77Z"/>
      <rect class="cls-3" x="24.02" y="66.99" width="47.96" height="9.62" rx="2.4" ry="2.4"/>
      <g>
        <circle class="cls-4" cx="56.68" cy="45.69" r="3"/>
        <circle class="cls-4" cx="39.32" cy="45.69" r="3"/>
      </g>
      <rect class="cls-4" x="47.12" y="50.81" width="1.75" height="5.31" rx=".88" ry=".88"/>
      <path class="cls-1" d="M74.59,41.19l.61-.78c3.15-4,5.67-8.46,7.47-13.23h0c1.42-2.47-.36-5.55-3.2-5.55h-16.17c-2.85,0-4.63,3.08-3.2,5.55l.18.47c1.85,4.76,4.43,9.21,7.63,13.2l.27.34c1.42,2.47,4.98,2.47,6.4,0Z"/>
      <path class="cls-1" d="M27.81,41.19l.61-.78c3.15-4,5.67-8.46,7.47-13.23h0c1.42-2.47-.36-5.55-3.2-5.55h-16.17c-2.85,0-4.63,3.08-3.2,5.55l.18.47c1.85,4.76,4.43,9.21,7.63,13.2l.27.34c1.42,2.47,4.98,2.47,6.4,0Z"/>
    </g>
  </g>
</svg>