<svg width="16" height="22" viewBox="0 0 16 22" fill="none" xmlns="http://www.w3.org/2000/svg">
<path fill-rule="evenodd" clip-rule="evenodd" d="M4.31733 17.708C4.13062 17.5209 4.02575 17.2671 4.02575 17.0026C4.02575 16.738 4.13062 16.4843 4.31733 16.2971L9.59478 11.0129L4.31732 5.72864C4.21937 5.63725 4.1408 5.52704 4.08631 5.40458C4.03182 5.28213 4.00252 5.14993 4.00016 5.01589C3.99779 4.88185 4.02242 4.74871 4.07256 4.62441C4.12271 4.5001 4.19734 4.38719 4.29202 4.29239C4.38669 4.1976 4.49946 4.12286 4.62361 4.07266C4.74775 4.02245 4.88072 3.99779 5.01459 4.00015C5.14846 4.00252 5.28048 4.03186 5.40278 4.08642C5.52507 4.14098 5.63514 4.21965 5.72642 4.31773L11.7084 10.3074C11.8951 10.4946 12 10.7483 12 11.0129C12 11.2774 11.8951 11.5312 11.7084 11.7183L5.72642 17.708C5.53948 17.895 5.28608 18 5.02187 18C4.75767 18 4.50426 17.895 4.31733 17.708Z" fill="#8C8C8C"/>
</svg>
