<svg width="47" height="39" viewBox="0 0 47 39" fill="none" xmlns="http://www.w3.org/2000/svg">
<path d="M37.625 5.75H41.9375C43.0302 5.74987 44.0823 6.16457 44.881 6.91029C45.6798 7.65602 46.1656 8.67715 46.2404 9.76733L46.25 10.0625V32.1042C46.2501 33.6953 45.6414 35.2261 44.5486 36.3826C43.4559 37.5391 41.962 38.2337 40.3735 38.3237L40.0208 38.3333H37.625V5.75Z" fill="url(#paint0_radial_714_2056)"/>
<path d="M6.47917 38.3333C4.88807 38.3334 3.35725 37.7247 2.20072 36.632C1.0442 35.5392 0.349664 34.0454 0.259584 32.4568L0.25 32.1042V4.3125C0.249866 3.21976 0.664566 2.16771 1.41029 1.36897C2.15602 0.570236 3.17715 0.0843757 4.26733 0.00958359L4.5625 3.25809e-08H34.2708C35.3636 -0.000134209 36.4156 0.414566 37.2144 1.16029C38.0131 1.90602 38.499 2.92715 38.5737 4.01733L38.5833 4.3125L38.5737 38.3333H6.47917Z" fill="url(#paint1_linear_714_2056)"/>
<path d="M6.47917 38.3333C4.88807 38.3334 3.35725 37.7247 2.20072 36.632C1.0442 35.5392 0.349664 34.0454 0.259584 32.4568L0.25 32.1042V4.3125C0.249866 3.21976 0.664566 2.16771 1.41029 1.36897C2.15602 0.570236 3.17715 0.0843757 4.26733 0.00958359L4.5625 3.25809e-08H34.2708C35.3636 -0.000134209 36.4156 0.414566 37.2144 1.16029C38.0131 1.90602 38.499 2.92715 38.5737 4.01733L38.5833 4.3125L38.5737 38.3333H6.47917Z" fill="url(#paint2_linear_714_2056)"/>
<path d="M6.47917 38.3333C4.88807 38.3334 3.35725 37.7247 2.20072 36.632C1.0442 35.5392 0.349664 34.0454 0.259584 32.4568L0.25 32.1042V4.3125C0.249866 3.21976 0.664566 2.16771 1.41029 1.36897C2.15602 0.570236 3.17715 0.0843757 4.26733 0.00958359L4.5625 3.25809e-08H34.2708C35.3636 -0.000134209 36.4156 0.414566 37.2144 1.16029C38.0131 1.90602 38.499 2.92715 38.5737 4.01733L38.5833 4.3125L38.5737 38.3333H6.47917Z" fill="url(#paint3_linear_714_2056)"/>
<path d="M16.0564 17.2578C17.3789 17.2578 18.4523 18.3311 18.4523 19.6536V26.3543C18.4523 27.6768 17.3789 28.7501 16.0564 28.7501H9.35384C8.03134 28.7501 6.95801 27.6768 6.95801 26.3543V19.6536C6.95801 18.3311 8.03134 17.2578 9.35384 17.2578H16.0564Z" fill="url(#paint4_linear_714_2056)"/>
<path d="M23.7287 25.8749H30.4293C30.7935 25.875 31.1441 26.0134 31.4103 26.262C31.6764 26.5107 31.8382 26.851 31.8631 27.2144C31.8879 27.5778 31.7738 27.937 31.544 28.2195C31.3142 28.5021 30.9856 28.6868 30.6248 28.7365L30.4293 28.7499H23.7287C23.3645 28.7498 23.0139 28.6114 22.7477 28.3628C22.4816 28.1141 22.3198 27.7737 22.295 27.4104C22.2701 27.047 22.3842 26.6878 22.614 26.4052C22.8438 26.1227 23.1724 25.938 23.5332 25.8883L23.7287 25.8749ZM23.7287 17.2556H30.4293C30.7935 17.2558 31.1441 17.3941 31.4103 17.6428C31.6764 17.8914 31.8382 18.2318 31.8631 18.5952C31.8879 18.9585 31.7738 19.3178 31.544 19.6003C31.3142 19.8828 30.9856 20.0676 30.6248 20.1172L30.4293 20.1306H23.7287C23.3645 20.1305 23.0139 19.9922 22.7477 19.7435C22.4816 19.4949 22.3198 19.1545 22.295 18.7911C22.2701 18.4278 22.3842 18.0685 22.614 17.786C22.8438 17.5035 23.1724 17.3187 23.5332 17.2691L23.7287 17.2556ZM8.38767 8.61914H30.4293C30.7935 8.61925 31.1441 8.75761 31.4103 9.00626C31.6764 9.2549 31.8382 9.5953 31.8631 9.95866C31.8879 10.322 31.7738 10.6813 31.544 10.9638C31.3142 11.2463 30.9856 11.4311 30.6248 11.4807L30.4293 11.4941H8.38767C8.02086 11.4979 7.66651 11.3612 7.39717 11.1122C7.12782 10.8632 6.96387 10.5206 6.93889 10.1546C6.9139 9.78866 7.02977 9.42698 7.26277 9.14366C7.49576 8.86033 7.82826 8.6768 8.19217 8.63064L8.38767 8.61914Z" fill="url(#paint5_linear_714_2056)"/>
<defs>
<radialGradient id="paint0_radial_714_2056" cx="0" cy="0" r="1" gradientUnits="userSpaceOnUse" gradientTransform="translate(51.425 10.6375) rotate(127.598) scale(22.6186 33.3253)">
<stop stop-color="#068BEB"/>
<stop offset="0.617" stop-color="#0056CF"/>
<stop offset="0.974" stop-color="#0027A7"/>
</radialGradient>
<linearGradient id="paint1_linear_714_2056" x1="11.2018" y1="-5.89758" x2="42.9572" y2="33.2829" gradientUnits="userSpaceOnUse">
<stop stop-color="#3BD5FF"/>
<stop offset="1" stop-color="#367AF2"/>
</linearGradient>
<linearGradient id="paint2_linear_714_2056" x1="22.1556" y1="30.9618" x2="22.1556" y2="38.3333" gradientUnits="userSpaceOnUse">
<stop offset="0.181" stop-color="#2764E7" stop-opacity="0"/>
<stop offset="1" stop-color="#2764E7"/>
</linearGradient>
<linearGradient id="paint3_linear_714_2056" x1="20.7852" y1="11.7952" x2="36.0265" y2="48.3402" gradientUnits="userSpaceOnUse">
<stop stop-color="#DCF8FF" stop-opacity="0"/>
<stop offset="1" stop-color="#FF6CE8" stop-opacity="0.7"/>
</linearGradient>
<linearGradient id="paint4_linear_714_2056" x1="8.05434" y1="16.6943" x2="13.8024" y2="28.202" gradientUnits="userSpaceOnUse">
<stop stop-color="#DEFCFF"/>
<stop offset="1" stop-color="#9FF0F9"/>
</linearGradient>
<linearGradient id="paint5_linear_714_2056" x1="9.12942" y1="8.97181" x2="11.8568" y2="30.726" gradientUnits="userSpaceOnUse">
<stop stop-color="#FDFDFD"/>
<stop offset="1" stop-color="#CCEAFF"/>
</linearGradient>
</defs>
</svg>
