<?xml version="1.0" encoding="UTF-8"?>
<svg id="_레이어_1" data-name="레이어 1" xmlns="http://www.w3.org/2000/svg" viewBox="0 0 96 96">
  <defs>
    <style>
      .cls-1 {
        fill: #d4e9ff;
      }

      .cls-2 {
        fill: #96795b;
      }

      .cls-3 {
        fill: #ebeef2;
      }

      .cls-4 {
        fill: #fec959;
      }

      .cls-5 {
        fill: #3689d9;
      }

      .cls-6 {
        fill: #54a0ff;
      }

      .cls-7 {
        fill: #c9d6e7;
      }
    </style>
  </defs>
  <circle class="cls-1" cx="30.1" cy="43.44" r="15.13"/>
  <circle class="cls-1" cx="31.75" cy="13.89" r="5.47"/>
  <circle class="cls-1" cx="57.33" cy="38.98" r="22.18"/>
  <path class="cls-6" d="M87.33,49.93H8.53c-1.16,0-2.1-.96-2.1-2.14v-5.75c0-1.18.94-2.14,2.1-2.14h78.8c1.16,0,2.1.96,2.1,2.14v5.75c0,1.18-.94,2.14-2.1,2.14Z"/>
  <path class="cls-6" d="M74.1,89.57H21.76c-2.27,0-4.19-1.72-4.48-4.02l-4.89-35.64h71.08l-4.89,35.64c-.29,2.3-2.21,4.02-4.48,4.02Z"/>
  <polygon class="cls-5" points="12.45 49.91 13.17 55.64 82.76 55.64 83.54 49.91 12.45 49.91"/>
  <rect class="cls-4" x=".34" y="47.82" width="48.65" height="9.86" rx="4.93" ry="4.93" transform="translate(-30.07 32.89) rotate(-45)"/>
  <g>
    <path class="cls-2" d="M70.03,6.35h1.64c1.62,0,2.94,1.32,2.94,2.94v59.74h-7.51V9.29c0-1.62,1.32-2.94,2.94-2.94Z"/>
    <path class="cls-7" d="M58.96,60.44h24.02c.9,0,1.64.73,1.64,1.64v5.63h-27.3v-5.63c0-.9.73-1.64,1.64-1.64Z"/>
    <path class="cls-3" d="M88.92,87.15l-4.29-19.53h-27.3l-4.29,19.53c-.34,1.24.76,2.42,2.26,2.42h3.72s-.01-.09,0-.13l2.32-11.17c.16-.78,1.03-1.3,1.95-1.16s1.52.88,1.36,1.65l-2.24,10.81h6.9v-11.14c0-.79.75-1.43,1.68-1.43s1.68.64,1.68,1.43v11.14h6.9l-2.24-10.81c-.16-.78.45-1.52,1.36-1.65.91-.14,1.79.38,1.95,1.16l2.32,11.17s0,.09,0,.13h3.72c1.49,0,2.6-1.18,2.26-2.42Z"/>
    <path class="cls-7" d="M70.97,77c-.93,0-1.68.64-1.68,1.43v11.14h3.36v-11.14c0-.79-.75-1.43-1.68-1.43Z"/>
    <path class="cls-7" d="M80.62,78.27c-.16-.78-1.03-1.3-1.95-1.16-.91.14-1.52.88-1.36,1.65l2.24,10.81h3.38s.01-.09,0-.13l-2.32-11.17Z"/>
    <path class="cls-7" d="M63.27,77.11c-.91-.14-1.79.38-1.95,1.16l-2.32,11.17s0,.09,0,.13h3.38l2.24-10.81c.16-.78-.45-1.52-1.36-1.65Z"/>
  </g>
</svg>