<?xml version="1.0" encoding="UTF-8"?>
<svg id="_레이어_1" data-name="레이어 1" xmlns="http://www.w3.org/2000/svg" viewBox="0 0 112.85 96">
  <defs>
    <style>
      .cls-1 {
        fill: #a4b6cc;
      }

      .cls-2 {
        fill: #f96e69;
      }

      .cls-3 {
        fill: #ff8c8f;
      }

      .cls-4 {
        fill: #2dbd99;
      }

      .cls-5 {
        fill: #fbb659;
      }

      .cls-6 {
        fill: #c9d6e7;
      }
    </style>
  </defs>
  <path class="cls-1" d="M96.93,55.41H15.92c-1.59,0-2.98-.92-3.35-2.22l-1.31-4.62h90.33l-1.31,4.62c-.37,1.3-1.76,2.22-3.35,2.22Z"/>
  <circle class="cls-4" cx="32.85" cy="31.82" r="4.53"/>
  <circle class="cls-5" cx="51.25" cy="27.86" r="4.53"/>
  <rect class="cls-3" x="70.19" y="25.11" width="15.55" height="8.19" rx="4.1" ry="4.1" transform="translate(2.19 63.68) rotate(-45)"/>
  <rect class="cls-4" x="58.12" y="7.76" width="8.19" height="15.55" rx="4.1" ry="4.1" transform="translate(7.23 48.54) rotate(-45)"/>
  <path class="cls-6" d="M6.07,40.99c-1.26,0-2.28,1.02-2.28,2.28v3.03c0,1.26,1.02,2.28,2.28,2.28h13.55l-.58-7.58H6.07Z"/>
  <path class="cls-6" d="M106.78,40.99h-12.97l-.58,7.58h13.55c1.26,0,2.28-1.02,2.28-2.28v-3.03c0-1.26-1.02-2.28-2.28-2.28Z"/>
  <path class="cls-3" d="M22.45,83.4c0,.12.04.22.06.34.42,3.35,3.22,5.9,6.6,5.9h54.63c3.49,0,6.39-2.72,6.65-6.24l2.84-33.57H19.62l2.84,33.57Z"/>
  <polygon class="cls-2" points="87.54 42.15 19.04 42.15 19.62 49.83 93.24 49.83 93.81 42.15 87.54 42.15"/>
  <path class="cls-2" d="M92.45,49.93H20.4c-1.06,0-1.92-.96-1.92-2.14v-5.75c0-1.18.86-2.14,1.92-2.14h72.04c1.06,0,1.92.96,1.92,2.14v5.75c0,1.18-.86,2.14-1.92,2.14Z"/>
</svg>