<?xml version="1.0" encoding="UTF-8"?>
<svg id="_레이어_1" data-name="레이어 1" xmlns="http://www.w3.org/2000/svg" viewBox="0 0 96 96">
  <defs>
    <style>
      .cls-1 {
        fill: #6fadff;
      }

      .cls-2 {
        fill: #798593;
      }

      .cls-3 {
        fill: #ebeef2;
      }

      .cls-4 {
        fill: #c9d6e7;
      }
    </style>
  </defs>
  <path class="cls-4" d="M12.11,24.04v59.43c0,3.36,2.47,6.09,5.52,6.09h60.75c3.05,0,5.52-2.72,5.52-6.09V24.04H12.11Z"/>
  <circle class="cls-3" cx="48.26" cy="55.94" r="19.4"/>
  <path class="cls-1" d="M26.3,56.62s12.57-10.28,22.85,0c10.28,10.28,20.94.89,20.94.89,0,0-2.34,8.64-2.43,8.89s-7.57,7.83-7.57,7.83l-13.02,3.83-10.64-3.74s-7.66-7.57-7.74-7.91-2.38-9.79-2.38-9.79Z"/>
  <path class="cls-2" d="M48.09,31.94c-13.25,0-24,10.75-24,24s10.75,24,24,24,24-10.75,24-24-10.75-24-24-24ZM48.09,75.34c-10.72,0-19.4-8.69-19.4-19.4s8.69-19.4,19.4-19.4,19.4,8.69,19.4,19.4-8.69,19.4-19.4,19.4Z"/>
  <path class="cls-2" d="M83.89,16.49c0-3.36-2.47-6.09-5.52-6.09H17.63c-3.05,0-5.52,2.72-5.52,6.09v8.02h71.79v-8.02Z"/>
  <circle class="cls-3" cx="75.67" cy="17.49" r="3.57"/>
  <circle class="cls-3" cx="64.18" cy="17.49" r="3.57"/>
  <rect class="cls-3" x="16.74" y="13.94" width="16.43" height="7.13" rx="2.16" ry="2.16"/>
</svg>