<?xml version="1.0" encoding="UTF-8"?>
<svg id="_레이어_1" data-name="레이어 1" xmlns="http://www.w3.org/2000/svg" viewBox="0 0 96 96">
  <defs>
    <style>
      .cls-1 {
        fill: #f96e69;
      }

      .cls-2 {
        fill: #96795b;
      }

      .cls-3 {
        fill: #fbb659;
      }

      .cls-4 {
        fill: #fec959;
      }

      .cls-5 {
        fill: #6e5840;
      }
    </style>
  </defs>
  <g>
    <path class="cls-3" d="M86.94,14.92l-1.21.14c-6.24.74-12.33,2.44-18.06,5.02h0c-3.39.91-4.53,5.15-2.05,7.63l14.11,14.11c2.48,2.48,6.72,1.35,7.63-2.05l.25-.57c2.54-5.77,4.17-11.9,4.86-18.17l.06-.54c.91-3.39-2.2-6.5-5.59-5.59Z"/>
    <path class="cls-3" d="M4.66,20.5l.14,1.21c.74,6.24,2.44,12.33,5.02,18.06h0c.91,3.39,5.15,4.53,7.63,2.05l14.11-14.11c2.48-2.48,1.35-6.72-2.05-7.63l-.57-.25c-5.77-2.54-11.9-4.17-18.17-4.86l-.54-.06c-3.39-.91-6.5,2.2-5.59,5.59Z"/>
  </g>
  <g>
    <path class="cls-2" d="M86.73,23.75l-.08.7c-.43,3.6-1.41,7.12-2.9,10.43h0c-.52,1.96-2.97,2.61-4.41,1.18l-8.14-8.14c-1.43-1.43-.78-3.88,1.18-4.41l.33-.14c3.33-1.46,6.87-2.41,10.49-2.8l.31-.03c1.96-.52,3.75,1.27,3.23,3.23Z"/>
    <path class="cls-2" d="M10.46,23.75l.08.7c.43,3.6,1.41,7.12,2.9,10.43h0c.52,1.96,2.97,2.61,4.41,1.18l8.14-8.14c1.43-1.43.78-3.88-1.18-4.41l-.33-.14c-3.33-1.46-6.87-2.41-10.49-2.8l-.31-.03c-1.96-.52-3.75,1.27-3.23,3.23Z"/>
  </g>
  <path class="cls-4" d="M86.93,53.66c0,21.17-17.17,33.67-38.34,33.67S10.25,74.83,10.25,53.66,27.42,18.82,48.59,18.82s38.34,13.67,38.34,34.84Z"/>
  <path class="cls-5" d="M43.64,56.23c0-1.52,1.23-2.08,2.75-2.08h4.42c1.52,0,2.75.56,2.75,2.08s-3.55,3.41-5.07,3.41h-.03c-1.52,0-4.82-1.9-4.82-3.41Z"/>
  <rect class="cls-1" x="19.01" y="77.55" width="59.17" height="11.86" rx="2.97" ry="2.97"/>
  <rect class="cls-5" x="73.17" y="52.85" width="19.67" height="3.99" rx="1.94" ry="1.94" transform="translate(-10.81 21.73) rotate(-14.01)"/>
  <rect class="cls-5" x="73.17" y="63.8" width="19.67" height="3.99" rx="1.94" ry="1.94" transform="translate(21.02 -20.1) rotate(15.78)"/>
  <rect class="cls-5" x="3.09" y="52.85" width="19.67" height="3.99" rx="1.94" ry="1.94" transform="translate(12.2 111.19) rotate(-165.99)"/>
  <rect class="cls-5" x="3.09" y="63.8" width="19.67" height="3.99" rx="1.94" ry="1.94" transform="translate(43.27 125.6) rotate(164.22)"/>
  <g>
    <circle class="cls-5" cx="59.3" cy="51.27" r="3.7"/>
    <circle class="cls-5" cx="37.88" cy="51.27" r="3.7"/>
  </g>
  <rect class="cls-5" x="47.51" y="57.59" width="2.16" height="6.55" rx=".93" ry=".93"/>
</svg>