<?xml version="1.0" encoding="UTF-8"?>
<svg id="_레이어_1" data-name="레이어 1" xmlns="http://www.w3.org/2000/svg" viewBox="0 0 96 96">
  <defs>
    <style>
      .cls-1 {
        fill: #f96e69;
      }

      .cls-2 {
        fill: #fbb659;
      }

      .cls-3 {
        fill: #fec959;
      }
    </style>
  </defs>
  <polygon class="cls-2" points="7.09 50.91 7.99 56.49 88.01 56.49 88.91 50.91 7.09 50.91"/>
  <path class="cls-3" d="M7.99,56.49l4.73,29.29c.33,2.25,2.54,3.93,5.16,3.93h60.26c2.62,0,4.83-1.68,5.16-3.93l4.73-29.29H7.99ZM27.39,83.71c-1.69.3-3.31-.83-3.6-2.52l-2.88-16.31c-.3-1.69.83-3.31,2.52-3.6h0c1.69-.3,3.31.83,3.6,2.52l2.88,16.31c.3,1.69-.83,3.31-2.52,3.6ZM41.5,83.75c-1.71.15-3.22-1.12-3.37-2.83l-1.44-16.5c-.15-1.71,1.12-3.22,2.83-3.37s3.22,1.12,3.37,2.83l1.44,16.5c.15,1.71-1.12,3.22-2.83,3.37ZM58.47,80.92c-.15,1.71-1.66,2.98-3.37,2.83s-2.98-1.66-2.83-3.37l1.44-16.5c.15-1.71,1.66-2.98,3.37-2.83s2.98,1.66,2.83,3.37l-1.44,16.5ZM75.09,64.88l-2.88,16.31c-.3,1.69-1.91,2.82-3.6,2.52-1.69-.3-2.82-1.91-2.52-3.6l2.88-16.31c.3-1.69,1.91-2.82,3.6-2.52h0c1.69.3,2.82,1.91,2.52,3.6Z"/>
  <path class="cls-3" d="M91.66,51.33H4.34c-1.29,0-2.33-1.08-2.33-2.42v-6.51c0-1.34,1.04-2.42,2.33-2.42h87.31c1.29,0,2.33,1.08,2.33,2.42v6.51c0,1.34-1.04,2.42-2.33,2.42Z"/>
  <rect class="cls-1" x="3.37" y="26.49" width="45.41" height="9.2" rx="4.6" ry="4.6" transform="translate(-14.35 27.54) rotate(-45)"/>
  <rect class="cls-1" x="65.33" y="8.39" width="9.2" height="45.41" rx="4.6" ry="4.6" transform="translate(-1.5 58.55) rotate(-45)"/>
</svg>