<?xml version="1.0" encoding="UTF-8"?>
<svg id="_레이어_1" data-name="레이어 1" xmlns="http://www.w3.org/2000/svg" viewBox="0 0 96 96">
  <defs>
    <style>
      .cls-1 {
        fill: #798593;
      }

      .cls-2 {
        fill: #a4b6cc;
      }

      .cls-3 {
        fill: #586575;
      }

      .cls-4 {
        fill: #c9d6e7;
      }
    </style>
  </defs>
  <path class="cls-3" d="M28.47,87.57h-4.89c-3.15,0-5.7-2.55-5.7-5.7v-35.63h16.29v35.63c0,3.15-2.55,5.7-5.7,5.7Z"/>
  <path class="cls-4" d="M84.97,68.65l-47.24-15.3v-29.59l47.24-15.3c2.53-.82,5.12,1.07,5.12,3.73v52.74c0,2.66-2.59,4.55-5.12,3.73Z"/>
  <path class="cls-1" d="M5.9,38.37c.04,5.4,3.6,9.74,7.94,9.71l-.16-19.54c-4.34.04-7.82,4.44-7.78,9.83Z"/>
  <path class="cls-2" d="M37.77,53.11h-18.68c-3.37,0-6.11-2.74-6.11-6.11v-17.37c0-3.37,2.74-6.11,6.11-6.11h18.68v29.59Z"/>
</svg>