<?xml version="1.0" encoding="UTF-8"?>
<svg id="_레이어_1" data-name="레이어 1" xmlns="http://www.w3.org/2000/svg" viewBox="0 0 96 96">
  <defs>
    <style>
      .cls-1 {
        fill: #fff;
      }

      .cls-2 {
        fill: #fec959;
      }
    </style>
  </defs>
  <rect class="cls-2" x=".04" y=".04" width="95.92" height="95.92" rx="47.96" ry="47.96"/>
  <path class="cls-1" d="M67.62,22.22l6.33,6.33c1.32,1.32,1.32,3.45,0,4.76l-30.5,30.5c-.7.7-1.84.7-2.55,0l-8.55-8.55c-.7-.7-.7-1.84,0-2.55l30.5-30.5c1.32-1.32,3.45-1.32,4.76,0Z"/>
  <path class="cls-1" d="M23.46,73.8l13.46-3.61c1.02-.27,1.37-1.55.62-2.3l-9.61-9.61c-.75-.75-2.03-.41-2.3.62l-3.61,13.46c-.23.87.57,1.67,1.44,1.44Z"/>
</svg>