<?xml version="1.0" encoding="UTF-8"?>
<svg id="_레이어_1" data-name="레이어 1" xmlns="http://www.w3.org/2000/svg" viewBox="0 0 96 96">
  <defs>
    <style>
      .cls-1 {
        fill: #fec959;
      }

      .cls-2 {
        fill: #ffe36c;
      }
    </style>
  </defs>
  <path class="cls-1" d="M40.57,64.69h57.43v9.28c0,1.73-1.4,3.13-3.13,3.13h-51.17c-1.73,0-3.13-1.4-3.13-3.13v-9.28h0Z" transform="translate(-29.84 69.76) rotate(-45)"/>
  <path class="cls-2" d="M62.04,11.4c6.55,6.86,4.19,15.45-2.56,22.2-6.75,6.75-17.62,6.83-24.48.28l-2.75,2.75c6.55,6.86,6.47,17.73-.28,24.48s-15.33,9.11-22.2,2.56l-3.19,3.19s31.18,26.79,38.12,19.84c9.27-9.27,29.58-29.58,40.37-40.37,6.94-6.94-19.84-38.12-19.84-38.12l-3.19,3.19Z"/>
  <g>
    <circle class="cls-1" cx="9.61" cy="66.69" r="6.78"/>
    <circle class="cls-1" cx="64.03" cy="10.19" r="6.78"/>
    <circle class="cls-1" cx="32.98" cy="34.6" r="7.12"/>
  </g>
</svg>