<?xml version="1.0" encoding="UTF-8"?>
<svg id="_레이어_1" data-name="레이어 1" xmlns="http://www.w3.org/2000/svg" viewBox="0 0 96 96">
  <defs>
    <style>
      .cls-1 {
        fill: #fec959;
      }

      .cls-2 {
        fill: #ffe36c;
      }
    </style>
  </defs>
  <path class="cls-1" d="M19.28,67.92h57.43v9.28c0,1.73-1.4,3.13-3.13,3.13H22.42c-1.73,0-3.13-1.4-3.13-3.13v-9.28h0Z"/>
  <path class="cls-2" d="M84.95,26.93c-.22,9.49-7.96,13.88-17.5,13.88s-17.28-7.63-17.5-17.11h-3.89c-.22,9.49-7.96,17.11-17.5,17.11s-17.28-4.4-17.5-13.88h-4.51s3.11,40.99,12.92,40.99h57.09c9.82,0,12.92-40.99,12.92-40.99h-4.51Z"/>
  <g>
    <circle class="cls-1" cx="8.78" cy="28.95" r="6.78"/>
    <circle class="cls-1" cx="87.22" cy="27.49" r="6.78"/>
    <circle class="cls-1" cx="48" cy="22.79" r="7.12"/>
  </g>
</svg>