<?xml version="1.0" encoding="UTF-8"?>
<svg id="_레이어_1" data-name="레이어 1" xmlns="http://www.w3.org/2000/svg" viewBox="0 0 96 96">
  <defs>
    <style>
      .cls-1 {
        fill: #54a0ff;
      }
    </style>
  </defs>
  <path class="cls-1" d="M53.29,89.38H19.7c-10.66,0-19.33-8.67-19.33-19.33v-35.99c0-2.04,1.09-3.93,2.86-4.96L40.83,7.39c1.77-1.02,3.95-1.02,5.72,0l29.02,16.76v-5.58c0-3.16,2.56-5.72,5.72-5.72s5.72,2.56,5.72,5.72v15.5c0,2.04-1.09,3.93-2.86,4.96-1.77,1.02-3.95,1.02-5.72,0l-34.75-20.06-31.89,18.41v32.68c0,4.35,3.54,7.89,7.89,7.89h33.6c3.16,0,5.72,2.56,5.72,5.72s-2.56,5.72-5.72,5.72Z"/>
  <path class="cls-1" d="M89.92,89.38c-8.04,0-14.2-1.27-18.94-3.27-4.82,2.04-10.87,3.27-18.35,3.27-3.16,0-5.72-2.56-5.72-5.72s2.56-5.72,5.72-5.72c2.73,0,5.14-.18,7.27-.5-3.82-5.47-4.36-11.37-4.36-14.23,0-10.39,6.46-17.65,15.71-17.65s15.71,7.26,15.71,17.65c0,4.75-1.39,9.82-4.62,14.22,2.29.35,4.82.52,7.59.52,3.16,0,5.72,2.56,5.72,5.72s-2.56,5.72-5.72,5.72ZM71.24,56.99c-3.71,0-4.26,3.89-4.26,6.2,0,4.04,1.39,7.28,4.12,9.69,3.76-3.26,4.4-7.31,4.4-9.69s-.55-6.2-4.26-6.2Z"/>
  <path class="cls-1" d="M25.15,62.93c-3.16,0-5.72-2.56-5.72-5.72v-9.21c0-3.16,2.56-5.72,5.72-5.72s5.72,2.56,5.72,5.72v9.21c0,3.16-2.56,5.72-5.72,5.72Z"/>
  <path class="cls-1" d="M41.32,62.93c-3.16,0-5.72-2.56-5.72-5.72v-9.21c0-3.16,2.56-5.72,5.72-5.72s5.72,2.56,5.72,5.72v9.21c0,3.16-2.56,5.72-5.72,5.72Z"/>
</svg>