<?xml version="1.0" encoding="UTF-8"?>
<svg id="_레이어_1" data-name="레이어 1" xmlns="http://www.w3.org/2000/svg" viewBox="0 0 273 75">
  <defs>
    <style>
      .cls-1 {
        fill: none;
        stroke: #54a0ff;
        stroke-miterlimit: 10;
        stroke-width: 5px;
      }

      .cls-2 {
        fill: #292f35;
      }
    </style>
  </defs>
  <g>
    <path class="cls-2" d="M13.5,70.12c-4.2-2.4-7.5-5.73-9.9-9.98-2.4-4.25-3.6-9.04-3.6-14.35s1.2-10.1,3.6-14.35c2.4-4.25,5.71-7.58,9.94-9.98,4.23-2.4,8.95-3.6,14.16-3.6,4.28,0,8.19.79,11.72,2.36,1.86.83,3.56,1.85,5.11,3.07,2.25,1.77,2.47,5.11.42,7.11h0c-1.69,1.65-4.34,1.78-6.2.32-3.04-2.38-6.55-3.57-10.51-3.57-3.4,0-6.46.8-9.17,2.4-2.71,1.6-4.82,3.8-6.34,6.62-1.52,2.81-2.28,6.02-2.28,9.63s.76,6.74,2.28,9.56c1.52,2.81,3.64,5.02,6.34,6.61,2.71,1.6,5.76,2.4,9.17,2.4,3.99,0,7.49-1.18,10.51-3.55,1.87-1.46,4.52-1.35,6.22.31h0c2.05,2,1.84,5.33-.4,7.11-1.54,1.22-3.24,2.25-5.11,3.09-3.56,1.6-7.5,2.4-11.84,2.4-5.21,0-9.92-1.2-14.12-3.6Z"/>
    <path class="cls-2" d="M89.17,35.5c2.97,3.04,4.45,7.56,4.45,13.54v18.84c0,2.76-2.23,4.99-4.99,4.99h0c-2.76,0-4.99-2.23-4.99-4.99v-17.21c0-3.56-.76-6.23-2.28-8.01-1.52-1.78-3.73-2.67-6.61-2.67-3.15,0-5.66,1.04-7.54,3.13-1.88,2.09-2.82,5.09-2.82,9.01v15.74c0,2.76-2.23,4.99-4.99,4.99h-.08c-2.76,0-4.99-2.23-4.99-4.99V20.45c0-2.76,2.23-4.99,4.99-4.99h.08c2.76,0,4.99,2.23,4.99,4.99v16.21c1.44-1.86,3.29-3.27,5.53-4.26,2.24-.98,4.73-1.47,7.47-1.47,4.9,0,8.83,1.52,11.8,4.56Z"/>
    <path class="cls-2" d="M132.26,35.39c3.12,2.97,4.68,7.42,4.68,13.35v20.08c0,2.24-1.82,4.06-4.06,4.06h-1.24c-2.24,0-4.06-1.82-4.06-4.06v-1.59c-1.08,2.01-2.68,3.55-4.8,4.6-2.12,1.06-4.64,1.59-7.58,1.59-4.49,0-8.05-1.15-10.68-3.44-2.63-2.29-3.95-5.27-3.95-8.94s1.34-6.74,4.02-8.94c2.68-2.19,6.83-3.29,12.46-3.29h9.9c0-1.75-.26-3.17-.77-4.26-1.17-3.61-4.22-5.36-9.15-5.26-2.24.05-4.46.5-6.55,1.3-.49.19-.97.4-1.43.62-2.02.97-4.44.19-5.44-1.81h0c-1-2-.2-4.44,1.8-5.45,1.28-.65,2.68-1.2,4.18-1.66,2.97-.9,6.02-1.35,9.17-1.35,5.88,0,10.38,1.48,13.5,4.45ZM123.4,64.67c1.65-1.08,2.84-2.66,3.56-4.72v-4.95h-8.82c-5.21,0-7.81,1.86-7.81,5.57,0,1.75.64,3.15,1.93,4.18,1.29,1.03,3.07,1.55,5.34,1.55s4.15-.54,5.8-1.62Z"/>
    <path class="cls-2" d="M207.94,35.5c2.97,3.04,4.45,7.56,4.45,13.54v18.84c0,2.76-2.23,4.99-4.99,4.99h0c-2.76,0-4.99-2.23-4.99-4.99v-17.21c0-3.56-.76-6.23-2.28-8.01-1.52-1.78-3.73-2.67-6.61-2.67-3.2,0-5.74,1.04-7.62,3.13-1.88,2.09-2.82,5.09-2.82,9.01v15.74c0,2.76-2.23,4.99-4.99,4.99h0c-2.76,0-4.99-2.23-4.99-4.99v-33.64c0-2.63,2.13-4.76,4.76-4.76h0c2.63,0,4.76,2.13,4.76,4.76v1.97c1.5-2.01,3.72-5.27,13.54-5.27,4.9,0,8.83,1.52,11.8,4.56Z"/>
    <path class="cls-2" d="M276.19,49.89v8.74c0,5.93-3.68,11.32-9.29,13.24-.04.01-.07.02-.11.04-3.59,1.21-7.23,1.82-10.95,1.82-6.25,0-11.79-1.69-16.63-5.08-2.29-1.6-4.3-3.59-5.94-5.86-3.53-4.89-5.29-10.55-5.29-16.99,0-5.36,1.21-10.16,3.64-14.39,2.42-4.23,5.76-7.54,10.02-9.94,4.26-2.4,9.06-3.6,14.43-3.6,4.38,0,8.36.76,11.91,2.28,1.84.79,3.53,1.76,5.06,2.93,2.3,1.74,2.54,5.11.49,7.14h0c-1.65,1.63-4.25,1.82-6.11.43-3.15-2.33-6.78-3.5-10.89-3.5-3.51,0-6.64.8-9.4,2.4-2.76,1.6-4.9,3.8-6.42,6.62-1.52,2.81-2.28,6.02-2.28,9.63s.76,6.76,2.28,9.59c1.52,2.84,3.65,5.04,6.38,6.61,2.73,1.57,5.85,2.36,9.36,2.36,2.21,0,4.26-.3,6.15-.91,2.42-.78,4.07-3.01,4.07-5.55v-8.01c0-2.61,2.11-4.72,4.72-4.72h.08c2.61,0,4.72,2.11,4.72,4.72Z"/>
    <path class="cls-2" d="M165.31,20.67v-10.64c0-5.53-4.5-10.03-10.03-10.03s-10.03,4.5-10.03,10.03v10.64c0,4.47,2.94,8.27,6.99,9.56v7.99c-4.05,1.29-6.99,5.09-6.99,9.56v15.64c0,5.53,4.5,10.03,10.03,10.03s10.03-4.5,10.03-10.03v-15.64c0-4.5-2.98-8.32-7.07-9.59v-7.93c4.09-1.27,7.07-5.08,7.07-9.59ZM150.25,20.67v-10.64c0-2.77,2.26-5.03,5.03-5.03s5.03,2.26,5.03,5.03v10.64c0,1.67-.82,3.13-2.07,4.05v-1.11c0-1.66-1.34-3-3-3s-3,1.34-3,3v1.04c-1.2-.92-1.99-2.35-1.99-3.98ZM160.31,47.78v15.64c0,2.77-2.26,5.03-5.03,5.03s-5.03-2.26-5.03-5.03v-15.64c0-1.63.79-3.06,1.99-3.98v3.08c0,1.66,1.34,3,3,3s3-1.34,3-3v-3.15c1.25.92,2.07,2.38,2.07,4.05Z"/>
  </g>
  <rect class="cls-1" x="-63.32" y="-38.56" width="390.75" height="376.07"/>
</svg>