<?xml version="1.0" encoding="UTF-8"?>
<svg id="_레이어_1" data-name="레이어 1" xmlns="http://www.w3.org/2000/svg" viewBox="0 0 276.05 61.61">
  <defs>
    <style>
      .cls-1 {
        fill: none;
        stroke: #54a0ff;
        stroke-miterlimit: 10;
        stroke-width: 5px;
      }

      .cls-2 {
        fill: #292f35;
      }
    </style>
  </defs>
  <g>
    <path class="cls-2" d="M13.78,57.94c-4.29-2.45-7.66-5.84-10.11-10.19-2.45-4.34-3.67-9.23-3.67-14.65s1.22-10.31,3.67-14.65c2.45-4.34,5.83-7.74,10.15-10.19,4.32-2.45,9.13-3.67,14.45-3.67,4.37,0,8.36.8,11.96,2.41,1.89.84,3.63,1.89,5.21,3.13,2.3,1.81,2.52,5.21.43,7.26h0c-1.73,1.69-4.43,1.82-6.33.33-3.11-2.43-6.68-3.65-10.73-3.65-3.47,0-6.59.82-9.36,2.45-2.76,1.63-4.92,3.88-6.48,6.75-1.55,2.87-2.33,6.15-2.33,9.83s.78,6.88,2.33,9.75c1.55,2.87,3.71,5.12,6.48,6.75,2.76,1.63,5.88,2.45,9.36,2.45,4.07,0,7.64-1.21,10.72-3.62,1.91-1.49,4.62-1.37,6.35.32h0c2.09,2.04,1.88,5.44-.41,7.26-1.57,1.25-3.31,2.3-5.21,3.15-3.63,1.63-7.66,2.45-12.08,2.45-5.32,0-10.12-1.22-14.41-3.67Z"/>
    <path class="cls-2" d="M91.01,22.6c3.03,3.11,4.54,7.71,4.54,13.82v19.23c0,2.81-2.28,5.09-5.09,5.09h0c-2.81,0-5.09-2.28-5.09-5.09v-17.57c0-3.63-.78-6.36-2.33-8.17-1.55-1.82-3.8-2.72-6.75-2.72-3.21,0-5.78,1.07-7.7,3.2-1.92,2.13-2.88,5.2-2.88,9.2v16.07c0,2.81-2.28,5.09-5.09,5.09h-.08c-2.81,0-5.09-2.28-5.09-5.09V7.24c0-2.81,2.28-5.09,5.09-5.09h.08c2.81,0,5.09,2.28,5.09,5.09v16.54c1.47-1.9,3.36-3.34,5.65-4.34,2.29-1,4.83-1.5,7.62-1.5,5,0,9.02,1.55,12.04,4.66Z"/>
    <path class="cls-2" d="M135,22.48c3.18,3.03,4.78,7.57,4.78,13.62v20.49c0,2.29-1.86,4.15-4.15,4.15h-1.26c-2.29,0-4.15-1.86-4.15-4.15v-1.62c-1.11,2.05-2.74,3.62-4.9,4.7-2.16,1.08-4.74,1.62-7.74,1.62-4.58,0-8.21-1.17-10.9-3.51-2.69-2.34-4.03-5.38-4.03-9.12s1.37-6.88,4.11-9.12c2.74-2.24,6.98-3.36,12.71-3.36h10.11c0-1.79-.26-3.24-.79-4.34-1.19-3.68-4.31-5.47-9.34-5.37-2.29.05-4.56.51-6.69,1.33-.5.19-.99.4-1.46.63-2.06.99-4.53.19-5.55-1.85h0c-1.02-2.05-.2-4.53,1.84-5.56,1.31-.66,2.73-1.23,4.26-1.69,3.03-.92,6.15-1.38,9.36-1.38,6,0,10.59,1.51,13.78,4.54ZM125.96,52.37c1.68-1.11,2.89-2.71,3.63-4.82v-5.05h-9c-5.32,0-7.98,1.89-7.98,5.69,0,1.79.66,3.21,1.97,4.26,1.32,1.05,3.13,1.58,5.45,1.58s4.24-.55,5.92-1.66Z"/>
    <path class="cls-2" d="M206.39,22.6c3.03,3.11,4.54,7.71,4.54,13.82v19.23c0,2.81-2.28,5.09-5.09,5.09h0c-2.81,0-5.09-2.28-5.09-5.09v-17.57c0-3.63-.78-6.36-2.33-8.17-1.55-1.82-3.8-2.72-6.75-2.72-3.27,0-5.86,1.07-7.78,3.2-1.92,2.13-2.88,5.2-2.88,9.2v16.07c0,2.81-2.28,5.09-5.09,5.09h0c-2.81,0-5.09-2.28-5.09-5.09V21.31c0-2.68,2.17-4.86,4.86-4.86h0c2.68,0,4.86,2.17,4.86,4.86v2.01c1.53-2.05,3.79-5.38,13.82-5.38,5,0,9.02,1.55,12.04,4.66Z"/>
    <path class="cls-2" d="M276.05,37.29v8.92c0,6.05-3.76,11.56-9.49,13.51-.04.01-.07.02-.11.04-3.66,1.24-7.38,1.86-11.17,1.86-6.38,0-12.04-1.73-16.97-5.19-2.34-1.64-4.39-3.66-6.06-5.98-3.6-4.99-5.4-10.77-5.4-17.34,0-5.47,1.24-10.37,3.71-14.69,2.47-4.32,5.88-7.7,10.23-10.15,4.34-2.45,9.25-3.67,14.73-3.67,4.47,0,8.53.78,12.16,2.33,1.88.8,3.6,1.8,5.17,2.99,2.35,1.78,2.6,5.22.5,7.29h0c-1.69,1.67-4.34,1.85-6.24.44-3.21-2.38-6.92-3.57-11.12-3.57-3.58,0-6.78.82-9.6,2.45-2.82,1.63-5,3.88-6.55,6.75-1.55,2.87-2.33,6.15-2.33,9.83s.78,6.9,2.33,9.79c1.55,2.9,3.72,5.15,6.51,6.75,2.79,1.61,5.97,2.41,9.56,2.41,2.26,0,4.35-.31,6.27-.93,2.47-.8,4.15-3.07,4.15-5.66v-8.18c0-2.66,2.16-4.81,4.81-4.81h.08c2.66,0,4.81,2.16,4.81,4.81Z"/>
    <path class="cls-2" d="M150.4,10.45c-1.2-1.17-1.8-2.62-1.8-4.34s.6-3.17,1.8-4.34c1.2-1.17,2.74-1.76,4.62-1.76s3.42.56,4.62,1.68c1.2,1.12,1.8,2.52,1.8,4.19,0,1.83-.59,3.34-1.76,4.54-1.17,1.2-2.73,1.8-4.66,1.8s-3.42-.59-4.62-1.76ZM160.1,23.95v31.7c0,2.81-2.28,5.09-5.09,5.09h0c-2.81,0-5.09-2.28-5.09-5.09v-31.7c0-2.81,2.28-5.09,5.09-5.09h0c2.81,0,5.09,2.28,5.09,5.09Z"/>
  </g>
  <rect class="cls-1" x="-63.32" y="-263.6" width="390.75" height="376.07"/>
</svg>