<?xml version="1.0" encoding="UTF-8"?>
<svg id="_레이어_1" data-name="레이어 1" xmlns="http://www.w3.org/2000/svg" viewBox="0 0 96 96">
  <defs>
    <style>
      .cls-1 {
        fill: transparent;
      }

      .cls-2 {
        fill: #54a0ff;
      }
    </style>
  </defs>
  <rect class="cls-1" x="0" y="0" width="95.95" height="95.95" rx="25.93" ry="25.93"/>
  <g>
    <path class="cls-2" d="M54.09,79.95h-25.94c-8.23,0-14.93-6.7-14.93-14.93v-27.78c0-1.58.84-3.04,2.21-3.83l29.03-16.76c1.37-.79,3.05-.79,4.42,0l22.41,12.94v-4.31c0-2.44,1.98-4.42,4.42-4.42s4.42,1.98,4.42,4.42v11.96c0,1.58-.84,3.04-2.21,3.83-1.37.79-3.05.79-4.42,0l-26.83-15.49-24.62,14.21v25.23c0,3.36,2.73,6.09,6.09,6.09h25.94c2.44,0,4.42,1.98,4.42,4.42s-1.98,4.42-4.42,4.42Z"/>
    <path class="cls-2" d="M82.36,79.95c-6.2,0-10.97-.98-14.62-2.53-3.72,1.58-8.39,2.53-14.17,2.53-2.44,0-4.42-1.98-4.42-4.42s1.98-4.42,4.42-4.42c2.11,0,3.97-.14,5.61-.39-2.95-4.22-3.37-8.77-3.37-10.99,0-8.02,4.99-13.62,12.13-13.62s12.12,5.6,12.12,13.62c0,3.67-1.07,7.58-3.57,10.98,1.76.27,3.72.4,5.86.4,2.44,0,4.42,1.98,4.42,4.42s-1.98,4.42-4.42,4.42ZM67.94,54.94c-2.86,0-3.29,3-3.29,4.79,0,3.12,1.08,5.62,3.18,7.48,2.91-2.52,3.4-5.65,3.4-7.48s-.43-4.79-3.29-4.79Z"/>
    <path class="cls-2" d="M32.36,59.53c-2.44,0-4.42-1.98-4.42-4.42v-7.11c0-2.44,1.98-4.42,4.42-4.42s4.42,1.98,4.42,4.42v7.11c0,2.44-1.98,4.42-4.42,4.42Z"/>
    <path class="cls-2" d="M44.84,59.53c-2.44,0-4.42-1.98-4.42-4.42v-7.11c0-2.44,1.98-4.42,4.42-4.42s4.42,1.98,4.42,4.42v7.11c0,2.44-1.98,4.42-4.42,4.42Z"/>
  </g>
</svg>