<?xml version="1.0" encoding="UTF-8"?>
<svg id="_레이어_1" data-name="레이어 1" xmlns="http://www.w3.org/2000/svg" xmlns:xlink="http://www.w3.org/1999/xlink" viewBox="0 0 96 96">
  <defs>
    <style>
      .cls-1 {
        fill: url(#linear-gradient-2);
      }

      .cls-2 {
        fill: url(#linear-gradient-3);
      }

      .cls-3 {
        fill: url(#linear-gradient);
      }
    </style>
    <linearGradient id="linear-gradient" x1="-578.53" y1="-1151.42" x2="-621.37" y2="-1108.58" gradientTransform="translate(926.73 1709.32) scale(1.47)" gradientUnits="userSpaceOnUse">
      <stop offset=".1" stop-color="#fff"/>
      <stop offset=".25" stop-color="#c5ecf6"/>
      <stop offset=".46" stop-color="#80d5ed"/>
      <stop offset=".64" stop-color="#49c3e5"/>
      <stop offset=".8" stop-color="#21b6df"/>
      <stop offset=".92" stop-color="#08aedc"/>
      <stop offset="1" stop-color="#00acdb"/>
    </linearGradient>
    <linearGradient id="linear-gradient-2" x1="-216.59" y1="-1119.03" x2="-194.74" y2="-1157.95" gradientTransform="translate(351.44 1709.32) scale(1.47)" gradientUnits="userSpaceOnUse">
      <stop offset="0" stop-color="#fff"/>
      <stop offset="1" stop-color="#00acdb"/>
    </linearGradient>
    <linearGradient id="linear-gradient-3" x1="-618.85" y1="-1116.6" x2="-588.23" y2="-1147.23" gradientTransform="translate(926.73 1709.32) scale(1.47)" gradientUnits="userSpaceOnUse">
      <stop offset=".05" stop-color="#fff"/>
      <stop offset=".15" stop-color="#cbeef7"/>
      <stop offset=".28" stop-color="#95dcf0"/>
      <stop offset=".4" stop-color="#68cde9"/>
      <stop offset=".52" stop-color="#42c1e4"/>
      <stop offset=".65" stop-color="#25b8e0"/>
      <stop offset=".77" stop-color="#10b1dd"/>
      <stop offset=".89" stop-color="#04addb"/>
      <stop offset="1" stop-color="#00acdb"/>
    </linearGradient>
  </defs>
  <path class="cls-3" d="M95.85,47.34c-1.4-13.34-8.83-22.53-22.99-23.33-7.65-.43-17.18,2.79-24.35,12.56,5.94-7.39,14.54-8.9,20.76-5.3,9.55,5.52,9.25,24.98-3.84,37.08-3.24,3-15.22,12.5-32.22,8.56-17.18-3.98-29.08-19.06-30.3-35.42h0c-.53-5.24.6-11.15,3.24-16.85C2.32,31.51.14,39.43.14,47.87c0,26.44,21.43,47.87,47.87,47.87s47.86-21.43,47.86-47.87c0-.18-.01-.35-.01-.53Z"/>
  <path class="cls-1" d="M48,0C30,0,14.33,9.94,6.15,24.63c-2.65,5.7-3.78,11.62-3.24,16.85.77,7.5,4.95,13.6,13.03,15.64,11.7,2.96,20.97-3.62,31.8-19.48.25-.37.51-.73.76-1.08,7.17-9.77,16.7-12.99,24.35-12.56,14.16.8,21.6,9.99,22.99,23.33C95.57,21.15,74.26,0,48,0Z"/>
  <path class="cls-2" d="M15.94,57.12c-8.08-2.04-12.27-8.14-13.03-15.64h0c1.22,16.36,13.12,31.44,30.3,35.42,17,3.94,28.98-5.57,32.22-8.56,13.09-12.1,13.39-31.56,3.84-37.08-6.22-3.59-14.82-2.09-20.76,5.3-.26.35-.51.71-.76,1.08-10.83,15.86-20.1,22.44-31.8,19.48Z"/>
</svg>