<svg width="12" height="13" viewBox="0 0 12 13" fill="none" xmlns="http://www.w3.org/2000/svg">
<path d="M7.125 9.94629C7.125 10.2447 7.00647 10.5308 6.7955 10.7418C6.58452 10.9528 6.29837 11.0713 6 11.0713C5.70163 11.0713 5.41548 10.9528 5.2045 10.7418C4.99353 10.5308 4.875 10.2447 4.875 9.94629C4.875 9.64792 4.99353 9.36177 5.2045 9.15079C5.41548 8.93982 5.70163 8.82129 6 8.82129C6.29837 8.82129 6.58452 8.93982 6.7955 9.15079C7.00647 9.36177 7.125 9.64792 7.125 9.94629ZM7.125 6.19629C7.125 6.49466 7.00647 6.78081 6.7955 6.99178C6.58452 7.20276 6.29837 7.32129 6 7.32129C5.70163 7.32129 5.41548 7.20276 5.2045 6.99178C4.99353 6.78081 4.875 6.49466 4.875 6.19629C4.875 5.89792 4.99353 5.61177 5.2045 5.40079C5.41548 5.18982 5.70163 5.07129 6 5.07129C6.29837 5.07129 6.58452 5.18982 6.7955 5.40079C7.00647 5.61177 7.125 5.89792 7.125 6.19629ZM7.125 2.44629C7.125 2.74466 7.00647 3.03081 6.7955 3.24178C6.58452 3.45276 6.29837 3.57129 6 3.57129C5.70163 3.57129 5.41548 3.45276 5.2045 3.24178C4.99353 3.03081 4.875 2.74466 4.875 2.44629C4.875 2.14792 4.99353 1.86177 5.2045 1.65079C5.41548 1.43982 5.70163 1.32129 6 1.32129C6.29837 1.32129 6.58452 1.43982 6.7955 1.65079C7.00647 1.86177 7.125 2.14792 7.125 2.44629Z" fill="#4F4F4F"/>
</svg>
