<svg width="27" height="27" viewBox="0 0 27 27" fill="none" xmlns="http://www.w3.org/2000/svg">
<path d="M13.9002 2.45605C8.03216 2.45605 3.25781 7.23041 3.25781 13.0985C3.25781 18.9665 8.03216 23.7409 13.9002 23.7409C19.7683 23.7409 24.5426 18.9665 24.5426 13.0985C24.5426 7.23041 19.7683 2.45605 13.9002 2.45605ZM13.9002 4.09335C18.8833 4.09335 22.9054 8.11537 22.9054 13.0985C22.9054 18.0816 18.8833 22.1036 13.9002 22.1036C8.91712 22.1036 4.89511 18.0816 4.89511 13.0985C4.89511 8.11537 8.91712 4.09335 13.9002 4.09335ZM13.0816 8.18659V12.2798H8.98835V13.9171H13.0816V18.0104H14.7189V13.9171H18.8121V12.2798H14.7189V8.18659H13.0816Z" fill="black"/>
</svg>
