<svg width="24" height="25" viewBox="0 0 24 25" fill="none" xmlns="http://www.w3.org/2000/svg">
<path fill-rule="evenodd" clip-rule="evenodd" d="M12.795 18.17C12.5841 18.3807 12.2981 18.499 12 18.499C11.7019 18.499 11.4159 18.3807 11.205 18.17L7.455 14.42C7.25628 14.2067 7.1481 13.9247 7.15324 13.6332C7.15838 13.3418 7.27645 13.0637 7.48257 12.8576C7.68869 12.6514 7.96676 12.5334 8.25822 12.5282C8.54967 12.5231 8.83174 12.6313 9.045 12.83L10.875 14.66V3.125C10.875 2.82663 10.9935 2.54048 11.2045 2.3295C11.4155 2.11853 11.7016 2 12 2C12.2984 2 12.5845 2.11853 12.7955 2.3295C13.0065 2.54048 13.125 2.82663 13.125 3.125V14.66L14.955 12.83C15.058 12.7195 15.1822 12.6308 15.3202 12.5693C15.4582 12.5078 15.6072 12.4748 15.7582 12.4721C15.9093 12.4694 16.0593 12.4972 16.1994 12.5538C16.3395 12.6104 16.4667 12.6946 16.5736 12.8014C16.6804 12.9083 16.7646 13.0355 16.8212 13.1756C16.8778 13.3157 16.9056 13.4657 16.9029 13.6168C16.9002 13.7678 16.8672 13.9168 16.8057 14.0548C16.7442 14.1928 16.6555 14.317 16.545 14.42L12.795 18.17ZM6.375 6.5C6.67337 6.5 6.95952 6.61853 7.1705 6.8295C7.38147 7.04048 7.5 7.32663 7.5 7.625C7.5 7.92337 7.38147 8.20952 7.1705 8.4205C6.95952 8.63147 6.67337 8.75 6.375 8.75H6C5.40326 8.75 4.83097 8.98705 4.40901 9.40901C3.98705 9.83097 3.75 10.4033 3.75 11V18.5C3.75 19.0967 3.98705 19.669 4.40901 20.091C4.83097 20.5129 5.40326 20.75 6 20.75H18C18.5967 20.75 19.169 20.5129 19.591 20.091C20.0129 19.669 20.25 19.0967 20.25 18.5V11C20.25 10.4033 20.0129 9.83097 19.591 9.40901C19.169 8.98705 18.5967 8.75 18 8.75H17.625C17.3266 8.75 17.0405 8.63147 16.8295 8.4205C16.6185 8.20952 16.5 7.92337 16.5 7.625C16.5 7.32663 16.6185 7.04048 16.8295 6.8295C17.0405 6.61853 17.3266 6.5 17.625 6.5H18C19.1935 6.5 20.3381 6.97411 21.182 7.81802C22.0259 8.66193 22.5 9.80653 22.5 11V18.5C22.5 19.6935 22.0259 20.8381 21.182 21.682C20.3381 22.5259 19.1935 23 18 23H6C4.80653 23 3.66193 22.5259 2.81802 21.682C1.97411 20.8381 1.5 19.6935 1.5 18.5V11C1.5 9.80653 1.97411 8.66193 2.81802 7.81802C3.66193 6.97411 4.80653 6.5 6 6.5H6.375Z" fill="#4F4F4F"/>
</svg>
