<svg width="16" height="16" viewBox="0 0 16 16" fill="none" xmlns="http://www.w3.org/2000/svg">
<path d="M8.84941 3.28555C8.84941 2.73326 8.4017 2.28555 7.84941 2.28555C7.29713 2.28555 6.84941 2.73326 6.84941 3.28555H8.84941ZM7.84941 8.4362H6.84941C6.84941 8.76303 7.00913 9.06923 7.27715 9.25627L7.84941 8.4362ZM10.8616 11.7576C11.3145 12.0736 11.9378 11.9627 12.2539 11.5098C12.57 11.0568 12.459 10.4335 12.0061 10.1174L10.8616 11.7576ZM13.6364 7.99982C13.6364 11.2131 11.0315 13.818 7.81818 13.818V15.818C12.136 15.818 15.6364 12.3177 15.6364 7.99982H13.6364ZM7.81818 13.818C4.60489 13.818 2 11.2131 2 7.99982H0C0 12.3177 3.50032 15.818 7.81818 15.818V13.818ZM2 7.99982C2 4.78653 4.60489 2.18164 7.81818 2.18164V0.181641C3.50032 0.181641 0 3.68196 0 7.99982H2ZM7.81818 2.18164C11.0315 2.18164 13.6364 4.78653 13.6364 7.99982H15.6364C15.6364 3.68196 12.136 0.181641 7.81818 0.181641V2.18164ZM6.84941 3.28555V8.4362H8.84941V3.28555H6.84941ZM7.27715 9.25627L10.8616 11.7576L12.0061 10.1174L8.42168 7.61613L7.27715 9.25627Z" fill="#5583E7"/>
</svg>
