<svg width="20" height="21" viewBox="0 0 20 21" fill="none" xmlns="http://www.w3.org/2000/svg">
<path d="M20 5.73904C20.0008 5.60743 19.9756 5.47697 19.9258 5.35513C19.876 5.2333 19.8027 5.12248 19.71 5.02904L15.47 0.78904C15.3766 0.696359 15.2658 0.623034 15.1439 0.573269C15.0221 0.523504 14.8916 0.498279 14.76 0.49904C14.6284 0.498279 14.4979 0.523504 14.3761 0.573269C14.2543 0.623034 14.1435 0.696359 14.05 0.78904L11.22 3.61904L0.290017 14.549C0.197335 14.6425 0.12401 14.7533 0.0742455 14.8751C0.0244809 14.997 -0.000744179 15.1274 1.67143e-05 15.259V19.499C1.67143e-05 19.7643 0.105374 20.0186 0.29291 20.2061C0.480446 20.3937 0.7348 20.499 1.00002 20.499H5.24002C5.37994 20.5067 5.51991 20.4848 5.65084 20.4348C5.78176 20.3848 5.90073 20.3079 6.00002 20.209L16.87 9.27904L19.71 6.49904C19.8011 6.402 19.8755 6.29048 19.93 6.16904C19.9397 6.08933 19.9397 6.00875 19.93 5.92904C19.9347 5.88249 19.9347 5.83559 19.93 5.78904L20 5.73904ZM4.83002 18.499H2.00002V15.669L11.93 5.73904L14.76 8.56904L4.83002 18.499ZM16.17 7.15904L13.34 4.32904L14.76 2.91904L17.58 5.73904L16.17 7.15904Z" fill="#4F4F4F"/>
</svg>
