<svg width="25" height="25" viewBox="0 0 25 25" fill="none" xmlns="http://www.w3.org/2000/svg">
<path d="M3.83045 11.8496L4.66645 12.0586L5.12345 16.6006C5.38145 19.1666 5.51045 20.4496 6.36745 21.2246C7.22445 21.9996 8.51445 21.9996 11.0935 21.9996H14.2395C16.8195 21.9996 18.1095 21.9996 18.9655 21.2246C19.8225 20.4496 19.9515 19.1666 20.2094 16.5996L20.6665 12.0596L21.5025 11.8496C21.7884 11.7781 22.0478 11.6259 22.2496 11.4111C22.4515 11.1963 22.5873 10.928 22.641 10.6382C22.6946 10.3484 22.6638 10.0492 22.5522 9.77642C22.4406 9.50362 22.2529 9.26867 22.0114 9.09957L13.8135 3.36257C13.4773 3.12721 13.0768 3.00098 12.6665 3.00098C12.2561 3.00098 11.8556 3.12721 11.5195 3.36257L3.32145 9.09957C3.08004 9.26874 2.89236 9.50377 2.78081 9.77664C2.66925 10.0495 2.63852 10.3487 2.69227 10.6385C2.74603 10.9284 2.882 11.1967 3.08398 11.4114C3.28596 11.6261 3.54443 11.7782 3.83045 11.8496Z" fill="#F1F3F6" stroke="#8C8C8C" stroke-width="1.5" stroke-linecap="round" stroke-linejoin="round"/>
<path d="M15.6665 16.5C14.8665 17.122 13.8165 17.5 12.6665 17.5C11.5165 17.5 10.4665 17.122 9.6665 16.5" stroke="#8C8C8C" stroke-width="1.5" stroke-linecap="round" stroke-linejoin="round"/>
</svg>
