<svg width="25" height="25" viewBox="0 0 25 25" fill="none" xmlns="http://www.w3.org/2000/svg">
<path d="M6.91097 15.982C5.49597 16.824 1.78597 18.544 4.04597 20.697C5.14897 21.748 6.37797 22.5 7.92297 22.5H16.741C18.287 22.5 19.516 21.748 20.619 20.697C22.879 18.544 19.169 16.824 17.754 15.982C16.1118 15.0119 14.2393 14.5001 12.332 14.5001C10.4246 14.5001 8.55318 15.0119 6.91097 15.982ZM16.833 7C16.833 8.19347 16.3589 9.33807 15.5149 10.182C14.671 11.0259 13.5264 11.5 12.333 11.5C11.1395 11.5 9.9949 11.0259 9.15099 10.182C8.30708 9.33807 7.83297 8.19347 7.83297 7C7.83297 5.80653 8.30708 4.66193 9.15099 3.81802C9.9949 2.97411 11.1395 2.5 12.333 2.5C13.5264 2.5 14.671 2.97411 15.5149 3.81802C16.3589 4.66193 16.833 5.80653 16.833 7Z" fill="#F1F3F6" stroke="#8C8C8C" stroke-width="1.5" stroke-linecap="round" stroke-linejoin="round"/>
</svg>
