<svg width="24" height="25" viewBox="0 0 24 25" fill="none" xmlns="http://www.w3.org/2000/svg">
<path d="M3.44 9.06C3.878 9.5 4.585 9.5 6 9.5C7.415 9.5 8.121 9.5 8.56 9.06C9 8.622 9 7.915 9 6.5C9 5.085 9 4.379 8.56 3.94C8.122 3.5 7.415 3.5 6 3.5C4.585 3.5 3.879 3.5 3.44 3.94C3 4.378 3 5.085 3 6.5C3 7.915 3 8.621 3.44 9.06ZM15.44 9.06C15.878 9.5 16.585 9.5 18 9.5C19.415 9.5 20.121 9.5 20.56 9.06C21 8.622 21 7.915 21 6.5C21 5.085 21 4.379 20.56 3.94C20.122 3.5 19.415 3.5 18 3.5C16.585 3.5 15.879 3.5 15.44 3.94C15 4.378 15 5.085 15 6.5C15 7.915 15 8.621 15.44 9.06ZM15.44 21.06C15.879 21.5 16.586 21.5 18 21.5C19.414 21.5 20.121 21.5 20.56 21.06C21 20.621 21 19.914 21 18.5C21 17.086 21 16.379 20.56 15.94C20.122 15.5 19.415 15.5 18 15.5C16.585 15.5 15.879 15.5 15.44 15.94C15 16.378 15 17.085 15 18.5C15 19.915 15 20.621 15.44 21.06ZM3.44 21.06C3.878 21.5 4.585 21.5 6 21.5C7.415 21.5 8.121 21.5 8.56 21.06C9 20.622 9 19.915 9 18.5C9 17.085 9 16.379 8.56 15.94C8.122 15.5 7.415 15.5 6 15.5C4.585 15.5 3.879 15.5 3.44 15.94C3 16.378 3 17.085 3 18.5C3 19.915 3 20.621 3.44 21.06ZM12 6.5H9H12ZM15 18.5H12H15ZM18 12.5V9.5V12.5ZM6 15.5V12.5V15.5Z" fill="#5583E7"/>
<path d="M9 6.5C9 7.915 9 8.622 8.56 9.06C8.121 9.5 7.415 9.5 6 9.5C4.585 9.5 3.878 9.5 3.44 9.06C3 8.621 3 7.915 3 6.5C3 5.085 3 4.378 3.44 3.94C3.879 3.5 4.585 3.5 6 3.5C7.415 3.5 8.122 3.5 8.56 3.94C9 4.379 9 5.085 9 6.5ZM9 6.5H12M18 9.5C16.585 9.5 15.878 9.5 15.44 9.06C15 8.621 15 7.915 15 6.5C15 5.085 15 4.378 15.44 3.94C15.879 3.5 16.585 3.5 18 3.5C19.415 3.5 20.122 3.5 20.56 3.94C21 4.379 21 5.085 21 6.5C21 7.915 21 8.622 20.56 9.06C20.121 9.5 19.415 9.5 18 9.5ZM18 9.5V12.5M15 18.5C15 17.085 15 16.378 15.44 15.94C15.879 15.5 16.585 15.5 18 15.5C19.415 15.5 20.122 15.5 20.56 15.94C21 16.379 21 17.086 21 18.5C21 19.914 21 20.621 20.56 21.06C20.121 21.5 19.414 21.5 18 21.5C16.586 21.5 15.879 21.5 15.44 21.06C15 20.621 15 19.915 15 18.5ZM15 18.5H12M6 15.5C7.415 15.5 8.122 15.5 8.56 15.94C9 16.379 9 17.085 9 18.5C9 19.915 9 20.622 8.56 21.06C8.121 21.5 7.415 21.5 6 21.5C4.585 21.5 3.878 21.5 3.44 21.06C3 20.621 3 19.915 3 18.5C3 17.085 3 16.378 3.44 15.94C3.879 15.5 4.585 15.5 6 15.5ZM6 15.5V12.5" stroke="#5583E7" stroke-width="1.5" stroke-linecap="round" stroke-linejoin="round"/>
</svg>
