<?xml version="1.0" encoding="UTF-8"?>
<svg id="_레이어_1" data-name="레이어 1" xmlns="http://www.w3.org/2000/svg" viewBox="0 0 100 80">
  <defs>
    <style>
      .cls-1 {
        fill: #d4e9ff;
      }

      .cls-2 {
        fill: #fbb659;
      }

      .cls-3 {
        fill: #fec959;
      }

      .cls-4 {
        fill: #3689d9;
      }

      .cls-5 {
        fill: #6e5840;
      }

      .cls-6 {
        fill: #54a0ff;
      }
    </style>
  </defs>
  <g>
    <path class="cls-1" d="M83.81,67.29H19.16c-1.64,0-2.97-1.33-2.97-2.97V25.94h64.61c3.31,0,5.99,2.68,5.99,5.99v32.4c0,1.64-1.33,2.97-2.97,2.97Z"/>
    <path class="cls-6" d="M24.18,54.48c.5,1.7,2.06,2.88,3.83,2.88h64.88c1.36,0,2.35-1.31,1.96-2.62l-7-24.09H17.25l6.93,23.83Z"/>
    <path class="cls-4" d="M82.03,23.57H18.56c-1.68,0-2.87,1.72-2.38,3.42l1.07,3.66h70.6l-.95-3.27c-.66-2.27-2.63-3.81-4.87-3.81Z"/>
    <rect class="cls-3" x="67.84" y="45.42" width="21.52" height="4.6" rx="2.17" ry="2.17"/>
  </g>
  <g>
    <circle class="cls-3" cx="19.41" cy="31.14" r="18.43"/>
    <circle class="cls-2" cx="19.41" cy="31.14" r="14.24"/>
    <path class="cls-5" d="M28.21,29.48h-1.64c.13-.91.19-1.77.2-2.46,0-.64-.5-1.16-1.14-1.17-.62-.01-1.16.5-1.17,1.14-.01.87-.09,1.71-.21,2.49h-3.45c-.12-.78-.2-1.61-.21-2.49,0-.64-.53-1.17-1.17-1.14,0,0,0,0,0,0s0,0,0,0c-.64-.01-1.16.5-1.17,1.14-.01.87-.09,1.71-.21,2.49h-3.45c-.12-.78-.2-1.61-.21-2.49,0-.63-.52-1.14-1.16-1.14h-.02c-.64,0-1.15.53-1.14,1.17,0,.69.07,1.55.2,2.46h-1.64c-.64,0-1.16.52-1.16,1.16s.52,1.16,1.16,1.16h2.09c.63,2.43,1.76,4.63,3.6,4.63,1.43,0,2.44-1.34,3.11-3.09.67,1.75,1.67,3.09,3.11,3.09,1.84,0,2.97-2.2,3.6-4.63h2.09c.64,0,1.16-.52,1.16-1.16s-.52-1.16-1.16-1.16ZM16.31,34.1c-.34-.19-.8-1.04-1.2-2.3h2.39c-.39,1.26-.86,2.11-1.2,2.3ZM22.52,34.1c-.34-.19-.8-1.05-1.2-2.3h2.39c-.39,1.26-.86,2.11-1.2,2.3Z"/>
  </g>
</svg>