<?xml version="1.0" encoding="UTF-8"?>
<svg id="_레이어_1" data-name="레이어 1" xmlns="http://www.w3.org/2000/svg" viewBox="0 0 100 80">
  <defs>
    <style>
      .cls-1 {
        fill: #fff;
        opacity: 0;
      }

      .cls-2 {
        fill: #fbb659;
      }

      .cls-3 {
        fill: #fec959;
      }

      .cls-4 {
        fill: #3689d9;
      }

      .cls-5 {
        fill: #6e5840;
      }

      .cls-6 {
        fill: #54a0ff;
      }
    </style>
  </defs>
  <rect class="cls-1" width="100" height="80"/>
  <g>
    <g>
      <path class="cls-6" d="M14.96,63.24c0,2.24,1.82,4.06,4.06,4.06h65.69c2.24,0,4.06-1.82,4.06-4.06V30.92H14.96v32.32Z"/>
      <path class="cls-4" d="M84.71,24.06H19.02c-2.24,0-4.06,1.82-4.06,4.06v4.91h73.8v-4.91c0-2.24-1.82-4.06-4.06-4.06Z"/>
      <rect class="cls-3" x="59.6" y="54.73" width="22.5" height="4.81" rx="2.41" ry="2.41"/>
    </g>
    <g>
      <circle class="cls-3" cx="18.43" cy="31.14" r="18.43"/>
      <circle class="cls-2" cx="18.43" cy="31.14" r="14.24"/>
      <path class="cls-5" d="M27.23,29.48h-1.64c.13-.91.19-1.77.2-2.46,0-.64-.5-1.16-1.14-1.17-.62-.01-1.16.5-1.17,1.14-.01.87-.09,1.71-.21,2.49h-3.45c-.12-.78-.2-1.61-.21-2.49,0-.64-.53-1.17-1.17-1.14,0,0,0,0,0,0s0,0,0,0c-.64-.01-1.16.5-1.17,1.14-.01.87-.09,1.71-.21,2.49h-3.45c-.12-.78-.2-1.61-.21-2.49,0-.63-.52-1.14-1.16-1.14h-.02c-.64,0-1.15.53-1.14,1.17,0,.69.07,1.55.2,2.46h-1.64c-.64,0-1.16.52-1.16,1.16s.52,1.16,1.16,1.16h2.09c.63,2.43,1.76,4.63,3.6,4.63,1.43,0,2.44-1.34,3.11-3.09.67,1.75,1.67,3.09,3.11,3.09,1.84,0,2.97-2.2,3.6-4.63h2.09c.64,0,1.16-.52,1.16-1.16s-.52-1.16-1.16-1.16ZM15.32,34.1c-.34-.19-.8-1.04-1.2-2.3h2.39c-.39,1.26-.86,2.11-1.2,2.3ZM21.54,34.1c-.34-.19-.8-1.05-1.2-2.3h2.39c-.39,1.26-.86,2.11-1.2,2.3Z"/>
    </g>
  </g>
</svg>