<?xml version="1.0" encoding="UTF-8"?>
<svg id="_레이어_1" data-name="레이어 1" xmlns="http://www.w3.org/2000/svg" xmlns:xlink="http://www.w3.org/1999/xlink" viewBox="0 0 80 80">
  <defs>
    <style>
      .cls-1 {
        fill: #d4e9ff;
      }

      .cls-2 {
        fill: none;
      }

      .cls-3 {
        fill: #96795b;
      }

      .cls-4 {
        fill: #292f35;
      }

      .cls-5 {
        fill: #54a0ff;
      }

      .cls-6 {
        clip-path: url(#clippath);
      }
    </style>
    <clipPath id="clippath">
      <ellipse class="cls-2" cx="32.15" cy="39.83" rx="32.07" ry="31.42"/>
    </clipPath>
  </defs>
  <g class="cls-6">
    <path class="cls-5" d="M32.15,11.62c15.91,0,28.85,12.65,28.85,28.21s-12.94,28.21-28.85,28.21S3.29,55.38,3.29,39.83s12.94-28.21,28.85-28.21M32.15,8.4C14.43,8.4.08,22.47.08,39.83s14.36,31.42,32.07,31.42,32.07-14.07,32.07-31.42-14.36-31.42-32.07-31.42h0Z"/>
    <g>
      <path class="cls-5" d="M40.99,25.07l-12.44-2.04.3-1.64,12.44,2.04-.3,1.64ZM39.77,27.96c-.15.83-.76,1.34-1.82,1.55-1.06.2-2.45.16-4.17-.12s-3.05-.69-3.98-1.23c-.93-.53-1.32-1.21-1.17-2.03.29-1.56,2.29-2.03,6.01-1.42,3.71.61,5.42,1.69,5.13,3.25ZM32.69,20.72c-1.09.19-2.19.21-3.33.04l.32-1.73c.81.1,1.61.07,2.41-.08.8-.15,1.51-.43,2.12-.83s1.04-.9,1.28-1.5l2.1.72c-.18.41-.41.78-.68,1.12l4.61,2.69-1.05,1.47-4.92-2.95c-.81.51-1.77.86-2.85,1.06ZM37.51,27.59c.09-.5-.96-.93-3.16-1.29-1.01-.17-1.83-.24-2.45-.22-.62.02-.95.16-1,.43s.21.51.79.72c.58.21,1.37.41,2.38.57,2.2.36,3.34.29,3.44-.21Z"/>
      <path class="cls-5" d="M53.36,30.49l-.35,1.89-10.95-1.8.78-4.2,2.18.36-.43,2.31,8.77,1.44ZM49.26,19.74c.55.4.94.9,1.17,1.51.23.61.28,1.26.15,1.98-.13.72-.42,1.33-.85,1.82-.43.49-.98.84-1.64,1.04-.66.2-1.39.24-2.19.11-.8-.13-1.48-.4-2.03-.8-.55-.4-.94-.9-1.18-1.5-.23-.6-.28-1.26-.15-1.98.13-.71.41-1.31.85-1.81.43-.5.98-.85,1.65-1.05.66-.2,1.4-.24,2.2-.11.8.13,1.47.4,2.02.8ZM45.46,20.98c-.4.27-.66.7-.77,1.28s-.02,1.07.26,1.45c.28.39.71.62,1.27.72s1.05,0,1.46-.28c.41-.28.67-.7.78-1.27.11-.57.02-1.05-.27-1.45-.29-.39-.71-.63-1.28-.73-.56-.09-1.05,0-1.45.27ZM51.22,28.87l1.68-9.05,2.15.35-1.68,9.05-2.15-.35Z"/>
    </g>
    <path class="cls-5" d="M5.3,72.63l1.5,1.47c6.29,6.16,16.48,6.16,22.77,0l12.98-12.72c6.29-6.16,6.29-16.15,0-22.31l-1.5-1.47c-6.29-6.16-16.48-6.16-22.77,0l-12.98,12.72c-6.29,6.16-6.29,16.15,0,22.31Z"/>
    <ellipse class="cls-4" cx="26.72" cy="48.24" rx="1.72" ry="1.68"/>
    <ellipse class="cls-4" cx="36.65" cy="48.24" rx="1.72" ry="1.68"/>
    <rect class="cls-5" x="11.75" y="25.83" width="9.42" height="25.89" rx="4.39" ry="4.39"/>
  </g>
  <g>
    <path class="cls-3" d="M60.52,27.94h8.08c1.01,0,1.83.8,1.83,1.79l-1.3,28.97h-9.13l-1.3-28.97c0-.99.82-1.79,1.83-1.79Z"/>
    <path class="cls-1" d="M74.36,71.25h-19.62c-1.75,0-3.18-1.42-3.18-3.18v-1.96h25.97v1.96c0,1.75-1.42,3.18-3.18,3.18Z"/>
    <rect class="cls-5" x="49.19" y="58.53" width="30.74" height="8.4" rx="3.19" ry="3.19"/>
  </g>
</svg>