<?xml version="1.0" encoding="UTF-8"?>
<svg id="_레이어_1" data-name="레이어 1" xmlns="http://www.w3.org/2000/svg" viewBox="0 0 80 80">
  <defs>
    <style>
      .cls-1 {
        fill: #d4e9ff;
      }

      .cls-2 {
        fill: #a4b6cc;
      }

      .cls-3 {
        fill: #96795b;
      }

      .cls-4 {
        fill: #fbb659;
      }

      .cls-5 {
        fill: #ebeef2;
      }

      .cls-6 {
        fill: #fec959;
      }

      .cls-7 {
        fill: #54a0ff;
      }

      .cls-8 {
        fill: #c9d6e7;
      }
    </style>
  </defs>
  <path class="cls-4" d="M67.69,58.03H.34V16.52c0-1.87,1.52-3.39,3.39-3.39h60.57c1.87,0,3.39,1.52,3.39,3.39v41.51Z"/>
  <path class="cls-5" d="M11.22.84h45.6c3.27,0,5.93,2.66,5.93,5.93v56.54H5.29V6.77C5.29,3.5,7.94.84,11.22.84Z"/>
  <path class="cls-6" d="M63.68,79.16H4.35c-2.22,0-4.01-1.8-4.01-4.01v-37.5c0-1.87,1.52-3.39,3.39-3.39h21.34c1.68,0,3.31.63,4.56,1.76l2.23,2.02c1.4,1.26,3.21,1.96,5.09,1.96h27.35c1.87,0,3.39,1.52,3.39,3.39v31.75c0,2.22-1.8,4.01-4.01,4.01Z"/>
  <circle class="cls-8" cx="20.34" cy="16.94" r="8.98"/>
  <rect class="cls-2" x="35.36" y="9.67" width="21.31" height="3.52" rx="1.76" ry="1.76"/>
  <rect class="cls-2" x="35.36" y="18.75" width="21.31" height="3.52" rx="1.76" ry="1.76"/>
  <rect class="cls-2" x="35.36" y="27.83" width="21.31" height="3.52" rx="1.76" ry="1.76"/>
  <g>
    <path class="cls-3" d="M59.98,34.34h8.19c1.02,0,1.85.83,1.85,1.85l-1.32,29.98h-9.26l-1.32-29.98c0-1.02.83-1.85,1.85-1.85Z"/>
    <path class="cls-1" d="M74.69,79.16h-21.23c-1.41,0-2.55-1.14-2.55-2.55v-2.76s26.34,0,26.34,0v2.76c0,1.41-1.14,2.55-2.55,2.55Z"/>
    <rect class="cls-7" x="48.49" y="65.99" width="31.17" height="8.7" rx="2.57" ry="2.57"/>
  </g>
</svg>