<?xml version="1.0" encoding="UTF-8"?>
<svg id="_레이어_1" data-name="레이어 1" xmlns="http://www.w3.org/2000/svg" viewBox="0 0 80 80">
  <defs>
    <style>
      .cls-1 {
        fill: #a4b6cc;
      }

      .cls-2 {
        fill: #fbb659;
      }

      .cls-3 {
        fill: #ebeef2;
      }

      .cls-4 {
        fill: #fec959;
      }

      .cls-5 {
        fill: #c9d6e7;
      }
    </style>
  </defs>
  <path class="cls-2" d="M73.99,58.2H6.01V16.3c0-1.89,1.53-3.43,3.43-3.43h61.14c1.89,0,3.43,1.53,3.43,3.43v41.9Z"/>
  <path class="cls-3" d="M16.93.47h46.14c3.27,0,5.93,2.66,5.93,5.93v57.13H11V6.4c0-3.27,2.66-5.93,5.93-5.93Z"/>
  <path class="cls-4" d="M69.94,79.53H10.06c-2.24,0-4.05-1.81-4.05-4.05v-37.85c0-1.89,1.53-3.43,3.43-3.43h21.54c1.7,0,3.34.63,4.6,1.77l2.25,2.04c1.41,1.28,3.24,1.98,5.14,1.98h27.6c1.89,0,3.43,1.53,3.43,3.43v32.05c0,2.24-1.81,4.05-4.05,4.05Z"/>
  <circle class="cls-5" cx="26.2" cy="16.72" r="9.07"/>
  <rect class="cls-1" x="41.36" y="9.39" width="21.51" height="3.55" rx="1.78" ry="1.78"/>
  <rect class="cls-1" x="41.36" y="18.55" width="21.51" height="3.55" rx="1.78" ry="1.78"/>
  <rect class="cls-1" x="41.36" y="27.72" width="21.51" height="3.55" rx="1.78" ry="1.78"/>
</svg>