<?xml version="1.0" encoding="UTF-8"?>
<svg id="_레이어_1" data-name="레이어 1" xmlns="http://www.w3.org/2000/svg" viewBox="0 0 100 80">
  <defs>
    <style>
      .cls-1 {
        fill: #d4e9ff;
      }

      .cls-2 {
        fill: #f96e69;
      }

      .cls-3 {
        fill: #fec959;
      }

      .cls-4 {
        fill: #3689d9;
      }

      .cls-5 {
        fill: #6e5840;
      }

      .cls-6 {
        fill: #54a0ff;
      }
    </style>
  </defs>
  <g>
    <path class="cls-1" d="M87.86,59.41H23.21c-1.64,0-2.97-1.33-2.97-2.97V18.06h64.61c3.31,0,5.99,2.68,5.99,5.99v32.4c0,1.64-1.33,2.97-2.97,2.97Z"/>
    <path class="cls-6" d="M28.23,46.6c.5,1.7,2.06,2.88,3.83,2.88h64.88c1.36,0,2.35-1.31,1.96-2.62l-7-24.09H21.3l6.93,23.83Z"/>
    <path class="cls-4" d="M86.08,15.69H22.61c-1.68,0-2.87,1.72-2.38,3.42l1.07,3.66h70.6l-.95-3.27c-.66-2.27-2.63-3.81-4.87-3.81Z"/>
    <rect class="cls-3" x="71.89" y="37.54" width="21.52" height="4.6" rx="2.17" ry="2.17"/>
  </g>
  <g>
    <path class="cls-3" d="M41.39,51.36c0,11.15-9.04,12.96-20.19,12.96S1.02,62.51,1.02,51.36s20.19-22.6,20.19-22.6c0,0,20.19,11.45,20.19,22.6Z"/>
    <path class="cls-3" d="M30.14,23.09c0-1.86-1.51-3.37-3.37-3.37-1.16,0-2.18.58-2.78,1.47-.61-.89-1.63-1.47-2.78-1.47s-2.18.58-2.78,1.47c-.61-.89-1.63-1.47-2.78-1.47-1.86,0-3.37,1.51-3.37,3.37,0,.37.06.72.17,1.06,0,.04.02.08.04.12l.14.4c1.43,4.02,3.42,7.78,5.9,11.15l.21.29c1.1,2.08,3.85,2.08,4.95,0l.47-.66c2.43-3.38,4.38-7.15,5.77-11.18.02-.04.03-.08.04-.12.11-.33.17-.69.17-1.06Z"/>
    <path class="cls-2" d="M28.28,32.93h-14.15c-.44,0-.79-.43-.79-.96v-1.91c0-.53.35-.96.79-.96h14.15c.44,0,.79.43.79.96v1.91c0,.53-.35.96-.79.96Z"/>
    <path class="cls-5" d="M30.81,48.38h-1.79c.14-.99.21-1.93.22-2.68,0-.7-.55-1.27-1.25-1.28-.68-.02-1.27.55-1.28,1.25-.01.95-.1,1.87-.23,2.72h-3.76c-.13-.85-.22-1.76-.23-2.72,0-.7-.58-1.28-1.28-1.25,0,0,0,0,0,0s0,0,0,0c-.7-.02-1.27.55-1.28,1.25-.01.95-.1,1.87-.23,2.72h-3.76c-.13-.85-.22-1.76-.23-2.72,0-.69-.57-1.25-1.26-1.25h-.02c-.7,0-1.26.58-1.25,1.28,0,.75.08,1.69.22,2.68h-1.79c-.7,0-1.26.57-1.26,1.26s.57,1.26,1.26,1.26h2.29c.69,2.66,1.92,5.06,3.93,5.06,1.56,0,2.66-1.46,3.39-3.37.73,1.91,1.83,3.37,3.39,3.37,2,0,3.24-2.4,3.93-5.06h2.29c.7,0,1.26-.57,1.26-1.26s-.57-1.26-1.26-1.26ZM17.81,53.41c-.37-.21-.88-1.14-1.3-2.51h2.61c-.43,1.37-.94,2.3-1.31,2.51ZM24.6,53.41c-.37-.21-.88-1.14-1.3-2.51h2.61c-.43,1.37-.94,2.3-1.31,2.51Z"/>
  </g>
</svg>