<?xml version="1.0" encoding="UTF-8"?>
<svg id="_레이어_1" data-name="레이어 1" xmlns="http://www.w3.org/2000/svg" viewBox="0 0 96 96">
  <defs>
    <style>
      .cls-1 {
        stroke: #a4b6cc;
        stroke-linecap: round;
      }

      .cls-1, .cls-2 {
        fill: none;
        stroke-miterlimit: 10;
        stroke-width: 5px;
      }

      .cls-2 {
        stroke: #54a0ff;
      }

      .cls-3 {
        fill: #ebeef2;
      }

      .cls-4 {
        fill: #c9d6e7;
      }
    </style>
  </defs>
  <rect class="cls-2" x="-330.92" y="-37.5" width="464.39" height="182.26"/>
  <path class="cls-4" d="M89.84,86.01H28.18c-3.21,0-6.32-1.16-8.74-3.28l-13.05-15.65c-.29-.34-.04-.87.41-.87h69.34l14.64,17.28c1,.87.38,2.51-.94,2.51Z"/>
  <path class="cls-3" d="M10.04,26.42h61.73c2.41,0,4.37,1.96,4.37,4.37v36.3H6.79c-.62,0-1.12-.5-1.12-1.12V30.79c0-2.41,1.96-4.37,4.37-4.37Z"/>
  <path class="cls-4" d="M70.61,37.93h-25.77c-.57,0-1.03-.67-1.03-1.5v-.18c0-.83.46-1.5,1.03-1.5h25.77c.57,0,1.03.67,1.03,1.5v.18c0,.83-.46,1.5-1.03,1.5Z"/>
  <path class="cls-4" d="M70.61,44.87h-25.77c-.57,0-1.03-.67-1.03-1.5v-.18c0-.83.46-1.5,1.03-1.5h25.77c.57,0,1.03.67,1.03,1.5v.18c0,.83-.46,1.5-1.03,1.5Z"/>
  <path class="cls-4" d="M69.81,63.26H14.15c-1.22,0-2.21-.71-2.21-1.59v-.19c0-.88.99-1.59,2.21-1.59h55.66c1.22,0,2.21.71,2.21,1.59v.19c0,.88-.99,1.59-2.21,1.59Z"/>
  <rect class="cls-4" x="11.97" y="32.59" width="28.03" height="17.49" rx="1.81" ry="1.81"/>
  <line class="cls-1" x1="79.54" y1="22.85" x2="88.76" y2="18.97"/>
  <line class="cls-1" x1="63.05" y1="15.48" x2="64.5" y2="4.67"/>
  <line class="cls-1" x1="44.49" y1="18.64" x2="40.76" y2="11.06"/>
</svg>