<?xml version="1.0" encoding="UTF-8"?>
<svg id="_레이어_1" data-name="레이어 1" xmlns="http://www.w3.org/2000/svg" viewBox="0 0 96 96">
  <defs>
    <style>
      .cls-1 {
        fill: #f96e69;
      }

      .cls-2 {
        fill: #fec959;
      }

      .cls-3 {
        fill: #6e5840;
      }
    </style>
  </defs>
  <path class="cls-2" d="M85.46,65.33c0,20.69-16.77,24.04-37.46,24.04s-37.46-3.35-37.46-24.04S48,23.39,48,23.39c0,0,37.46,21.25,37.46,41.94Z"/>
  <path class="cls-2" d="M64.58,12.87c0-3.45-2.8-6.25-6.25-6.25-2.15,0-4.04,1.08-5.17,2.74-1.12-1.65-3.02-2.74-5.17-2.74s-4.04,1.08-5.17,2.74c-1.12-1.65-3.02-2.74-5.17-2.74-3.45,0-6.25,2.8-6.25,6.25,0,.68.11,1.34.32,1.96.01.08.03.15.07.23l.26.73c2.66,7.47,6.35,14.45,10.94,20.69l.39.54c2.04,3.87,7.14,3.87,9.18,0l.88-1.22c4.52-6.28,8.13-13.27,10.72-20.74.04-.08.06-.15.07-.23.2-.62.32-1.27.32-1.96Z"/>
  <path class="cls-1" d="M61.13,31.13h-26.26c-.81,0-1.46-.79-1.46-1.77v-3.55c0-.98.65-1.77,1.46-1.77h26.26c.81,0,1.46.79,1.46,1.77v3.55c0,.98-.65,1.77-1.46,1.77Z"/>
  <path class="cls-3" d="M65.82,59.8h-3.33c.26-1.85.38-3.58.4-4.98.02-1.29-1.02-2.36-2.31-2.38-1.26-.03-2.36,1.02-2.38,2.31-.02,1.77-.18,3.47-.43,5.04h-6.98c-.24-1.57-.4-3.27-.43-5.04-.02-1.29-1.07-2.37-2.38-2.31,0,0,0,0,0,0s0,0,0,0c-1.29-.03-2.36,1.02-2.38,2.31-.02,1.77-.18,3.47-.43,5.04h-6.98c-.24-1.57-.4-3.27-.43-5.04-.02-1.28-1.06-2.31-2.34-2.31h-.03c-1.29.02-2.33,1.08-2.31,2.38.02,1.4.15,3.13.4,4.98h-3.33c-1.29,0-2.34,1.05-2.34,2.34s1.05,2.34,2.34,2.34h4.24c1.28,4.93,3.57,9.38,7.29,9.38,2.9,0,4.94-2.72,6.3-6.26,1.36,3.54,3.39,6.26,6.3,6.26,3.72,0,6.01-4.45,7.29-9.38h4.24c1.29,0,2.34-1.05,2.34-2.34s-1.05-2.34-2.34-2.34ZM41.7,69.14c-.68-.39-1.63-2.12-2.42-4.66h4.84c-.79,2.54-1.74,4.27-2.42,4.66ZM54.3,69.14c-.68-.39-1.63-2.12-2.42-4.66h4.84c-.79,2.54-1.74,4.27-2.42,4.66Z"/>
</svg>